<?xml version="1.0" encoding="UTF-8"?><svg id="Lag_1" xmlns="http://www.w3.org/2000/svg" width="26" height="28" viewBox="0 0 26 28"><defs><style>.cls-1{fill:#f2f2f2;fill-rule:evenodd;stroke-width:0px;}</style></defs><path class="cls-1" d="M6,16.9c-.15-.94-.22-1.91-.22-2.9s.08-1.98.23-2.93h-3.68c-.21.93-.33,1.91-.33,2.93s.11,1.97.32,2.9h3.68ZM6.43,18.9h-3.48c1.33,3.25,3.95,5.69,7.07,6.65-1.63-1.79-2.89-4.07-3.59-6.65ZM9.52,18.9h6.96c-.75,2.05-1.96,3.81-3.48,5.08-1.51-1.27-2.73-3.02-3.48-5.08ZM17.04,16.9h-8.09c-.19-.93-.29-1.9-.29-2.9s.1-1.99.29-2.93h8.08c.19.94.29,1.92.29,2.93s-.1,1.97-.29,2.9ZM19.57,18.9c-.71,2.58-1.96,4.86-3.59,6.65,3.13-.96,5.74-3.41,7.07-6.65h-3.48ZM23.68,16.9h-3.68c.15-.94.22-1.91.22-2.9s-.08-1.98-.23-2.93h3.68c.21.93.33,1.91.33,2.93s-.11,1.97-.32,2.9ZM13,4.03c-1.51,1.26-2.71,3.01-3.47,5.05h6.94c-.75-2.04-1.96-3.79-3.47-5.05ZM19.56,9.07h3.47c-1.34-3.23-3.94-5.67-7.06-6.63,1.63,1.78,2.88,4.06,3.59,6.63ZM2.96,9.07h3.47c.71-2.57,1.96-4.84,3.59-6.63-3.12.96-5.73,3.39-7.06,6.63ZM13,0h0c7.18,0,13,6.27,13,14s-5.82,14-13,14h0C5.82,28,0,21.73,0,14S5.82,0,13,0Z"/></svg>