<?xml version="1.0" encoding="UTF-8"?><svg id="Lag_1" xmlns="http://www.w3.org/2000/svg" width="18" height="30" viewBox="0 0 18 30"><defs><style>.cls-1{fill:#f2f2f2;fill-rule:evenodd;stroke-width:0px;}</style></defs><path class="cls-1" d="M2,10.56c0-4.74,3.34-7.74,7-7.74s7,3.01,7,7.74c0,.81-.28,2.04-.85,3.6-.56,1.52-1.34,3.22-2.2,4.92-1.33,2.62-2.83,5.18-3.95,7.02-1.12-1.84-2.62-4.4-3.95-7.02-.86-1.7-1.64-3.4-2.2-4.92-.57-1.56-.85-2.79-.85-3.6ZM0,10.56c0,4.52,5.94,14.39,8.17,17.93.38.6,1.29.6,1.67,0,2.23-3.55,8.17-13.41,8.17-17.93C18,4.99,13.97.95,9,.95S0,4.99,0,10.56ZM9,13.09c1.66,0,3-1.36,3-3.04s-1.34-3.04-3-3.04-3,1.36-3,3.04,1.34,3.04,3,3.04Z"/></svg>