<svg width="28" height="16" viewBox="0 0 28 16" fill="none" xmlns="http://www.w3.org/2000/svg">
<path d="M1.17188 7.30811C0.61959 7.30811 0.171875 7.75582 0.171875 8.30811C0.171875 8.86039 0.61959 9.30811 1.17188 9.30811V7.30811ZM26.879 9.01521C27.2695 8.62469 27.2695 7.99152 26.879 7.601L20.515 1.23704C20.1245 0.846513 19.4913 0.846513 19.1008 1.23704C18.7103 1.62756 18.7103 2.26073 19.1008 2.65125L24.7577 8.30811L19.1008 13.965C18.7103 14.3555 18.7103 14.9886 19.1008 15.3792C19.4913 15.7697 20.1245 15.7697 20.515 15.3792L26.879 9.01521ZM1.17188 9.30811H26.1719V7.30811H1.17188V9.30811Z" fill="white"/>
</svg>
