<?xml version="1.0" encoding="UTF-8"?><svg id="Lag_1" xmlns="http://www.w3.org/2000/svg" width="48" height="48" viewBox="0 0 48 48"><defs><style>.cls-1{fill:none;}.cls-1,.cls-2{stroke-width:0px;}.cls-2{fill:#fff;}</style></defs><circle class="cls-2" cx="23.68" cy="24.32" r="23.68" transform="translate(-7.84 36.89) rotate(-67.5)"/><path class="cls-1" d="M19.62,39.18l5.96.03s.04-8.23.08-14.9l4.42.02.57-5.96-4.74-.02v-2.38c.02-1.16.79-1.43,1.34-1.42.54,0,3.34.02,3.34.02l.03-5.11-4.6-.04c-5.11-.03-6.29,3.78-6.3,6.21v2.69s-2.97-.02-2.97-.02l-.03,5.96,2.98.02c-.03,6.75-.08,14.9-.08,14.9Z"/></svg>