<?xml version="1.0" encoding="UTF-8"?><svg id="Lag_1" xmlns="http://www.w3.org/2000/svg" width="48" height="48" viewBox="0 0 48 48"><defs><style>.cls-1{fill:#f2f2f2;stroke-width:0px;}</style></defs><path class="cls-1" d="M19.7,24.28l-2.98-.02.03-5.96,2.96.02v-2.69c.03-2.44,1.21-6.24,6.32-6.21l4.6.04-.03,5.11s-2.8-.01-3.34-.02c-.54,0-1.32.26-1.32,1.42v2.38s4.72.02,4.72.02l-.57,5.96-4.42-.02c-.03,6.67-.08,14.9-.08,14.9l-5.96-.03s.04-8.15.08-14.9ZM23.68.63C10.6.63,0,11.24,0,24.32s10.6,23.68,23.68,23.68,23.68-10.6,23.68-23.68S36.76.63,23.68.63Z"/></svg>