<?xml version="1.0" encoding="UTF-8"?><svg id="Lag_1" xmlns="http://www.w3.org/2000/svg" width="48" height="48" viewBox="0 0 48 48"><defs><style>.cls-1{fill:#f2f2f2;stroke-width:0px;}</style></defs><path class="cls-1" d="M47,23.37c0,12.91-10.46,23.37-23.37,23.37S.26,36.27.26,23.37,10.73,0,23.63,0s23.37,10.46,23.37,23.37ZM30.41,23.37c0-3.74-3.04-6.77-6.77-6.77s-6.77,3.04-6.77,6.77,3.04,6.77,6.77,6.77,6.77-3.04,6.77-6.77ZM28.17,23.37c0,2.5-2.04,4.54-4.54,4.54s-4.54-2.04-4.54-4.54,2.03-4.54,4.54-4.54,4.54,2.04,4.54,4.54ZM30.9,14.67c-.88,0-1.58.71-1.58,1.58s.71,1.58,1.58,1.58,1.58-.71,1.58-1.58-.71-1.58-1.58-1.58ZM36.59,30.99v-15.24c0-2.99-2.49-5.43-5.56-5.43h-14.8c-3.07,0-5.56,2.44-5.56,5.43v15.24c0,3,2.49,5.43,5.56,5.43h14.8c3.06,0,5.56-2.44,5.56-5.43ZM31.03,12.55c1.83,0,3.32,1.43,3.32,3.19v15.24c0,1.76-1.49,3.19-3.32,3.19h-14.8c-1.83,0-3.32-1.43-3.32-3.19v-15.24c0-1.76,1.49-3.19,3.32-3.19h14.8Z"/></svg>