<?xml version="1.0" encoding="UTF-8"?><svg id="Lag_1" xmlns="http://www.w3.org/2000/svg" width="48" height="48" viewBox="0 0 48 48"><defs><style>.cls-1{fill:#f2f2f2;stroke-width:0px;}</style></defs><path class="cls-1" d="M20.34,15.42c3.09-.08,6.18-.05,9.27.08,1,.05,2.01.1,3.01.22.54.07,1.1.14,1.59.39.85.41,1.49,1.21,1.7,2.13.28,1.16.36,2.36.43,3.55.11,1.83.09,3.66-.03,5.49-.08,1.01-.16,2.04-.41,3.03-.22.91-.87,1.7-1.72,2.1-.55.27-1.16.33-1.75.4-1.54.16-3.09.22-4.64.27-3.3.1-6.6.08-9.9-.06-1.25-.07-2.51-.12-3.75-.33-.96-.16-1.82-.78-2.27-1.63-.3-.55-.39-1.17-.49-1.77-.23-1.63-.29-3.29-.31-4.93.01-1.61.07-3.22.28-4.82.11-.72.19-1.46.56-2.1.32-.56.81-1.02,1.4-1.3.55-.27,1.17-.33,1.77-.4,1.75-.18,3.5-.23,5.26-.28M21.21,20.46c0,2.53,0,5.06,0,7.58,2.19-1.26,4.38-2.53,6.56-3.79-2.19-1.27-4.38-2.53-6.56-3.79h0ZM23.75.51C10.63.51,0,11.14,0,24.25s10.63,23.75,23.75,23.75,23.75-10.63,23.75-23.75S36.86.51,23.75.51Z"/></svg>