<?xml version="1.0" encoding="UTF-8"?><svg id="Layer_2" xmlns="http://www.w3.org/2000/svg" width="611.1" height="363.85" xmlns:xlink="http://www.w3.org/1999/xlink" viewBox="0 0 611.1 363.85"><defs><style>.cls-1{fill:url(#linear-gradient);}.cls-1,.cls-2,.cls-3,.cls-4{stroke-width:0px;}.cls-2{fill:url(#linear-gradient-2);}.cls-3{fill:url(#linear-gradient-3);}.cls-4{fill:#fff;}</style><linearGradient id="linear-gradient" x1="36.73" y1="-57.53" x2="488.49" y2="142.12" gradientUnits="userSpaceOnUse"><stop offset="0" stop-color="#ff5248"/><stop offset=".98" stop-color="#9e7df9"/></linearGradient><linearGradient id="linear-gradient-2" x1="-3.89" y1="173.99" x2="267.89" y2="126.07" gradientUnits="userSpaceOnUse"><stop offset="0" stop-color="#9c7efb"/><stop offset=".25" stop-color="#7a86ef"/><stop offset=".56" stop-color="#5390e3"/><stop offset=".57" stop-color="#5090e2"/><stop offset=".98" stop-color="#00a1cd"/></linearGradient><linearGradient id="linear-gradient-3" x1="-1.99" y1="288.8" x2="391.99" y2="219.33" gradientUnits="userSpaceOnUse"><stop offset="0" stop-color="#00a1cc"/><stop offset=".56" stop-color="#00a2cc"/><stop offset=".98" stop-color="#00c4c2"/></linearGradient></defs><g id="Layer_1-2"><rect class="cls-1" width="542" height="92"/><rect class="cls-2" y="104.03" width="264" height="92"/><rect class="cls-3" y="208.06" width="390" height="92"/><path class="cls-4" d="M28.09,46.77c0-2.82.49-5.58,1.46-8.29.98-2.71,2.41-5.18,4.29-7.41,1.89-2.23,4.19-4.01,6.92-5.33,2.73-1.32,5.83-1.98,9.29-1.98,4.12,0,7.65.94,10.59,2.83,2.95,1.88,5.14,4.3,6.57,7.25l-4.62,2.99c-.91-1.95-2.07-3.5-3.48-4.65-1.41-1.15-2.92-1.96-4.55-2.44-1.62-.48-3.22-.71-4.78-.71-2.56,0-4.82.52-6.79,1.56s-3.63,2.43-4.97,4.16c-1.34,1.73-2.35,3.67-3.02,5.82-.67,2.15-1.01,4.3-1.01,6.47,0,2.38.4,4.68,1.2,6.89s1.92,4.16,3.35,5.85c1.43,1.69,3.12,3.03,5.07,4.03,1.95,1,4.07,1.49,6.37,1.49,1.6,0,3.25-.28,4.94-.84,1.69-.56,3.27-1.44,4.75-2.63,1.47-1.19,2.64-2.74,3.51-4.65l4.88,2.67c-.95,2.3-2.43,4.25-4.42,5.85-1.99,1.6-4.21,2.82-6.66,3.64-2.45.82-4.87,1.24-7.25,1.24-3.16,0-6.07-.68-8.71-2.05-2.64-1.37-4.93-3.18-6.86-5.46-1.93-2.27-3.42-4.83-4.48-7.67-1.06-2.84-1.59-5.71-1.59-8.61Z"/><path class="cls-4" d="M99.33,70.56c-3.25,0-6.2-.65-8.84-1.95-2.64-1.3-4.93-3.07-6.86-5.3-1.93-2.23-3.41-4.75-4.45-7.54s-1.56-5.67-1.56-8.61.55-6.01,1.66-8.81c1.11-2.79,2.64-5.29,4.62-7.47,1.97-2.19,4.28-3.92,6.92-5.2,2.64-1.28,5.52-1.92,8.64-1.92s6.2.67,8.84,2.01c2.64,1.34,4.92,3.14,6.83,5.39,1.91,2.25,3.38,4.77,4.42,7.54,1.04,2.77,1.56,5.61,1.56,8.52,0,3.08-.54,6.01-1.62,8.81s-2.61,5.29-4.58,7.47c-1.97,2.19-4.28,3.91-6.92,5.17-2.64,1.26-5.52,1.88-8.64,1.88ZM83.54,47.16c0,2.34.38,4.61,1.14,6.79.76,2.19,1.83,4.13,3.22,5.82,1.39,1.69,3.06,3.03,5,4.03,1.95,1,4.12,1.49,6.5,1.49s4.68-.52,6.63-1.56c1.95-1.04,3.61-2.43,4.97-4.16,1.37-1.73,2.41-3.68,3.12-5.85s1.07-4.36,1.07-6.57c0-2.34-.38-4.59-1.14-6.76-.76-2.17-1.84-4.11-3.25-5.82-1.41-1.71-3.08-3.05-5-4.03-1.93-.97-4.06-1.46-6.4-1.46-2.47,0-4.68.51-6.63,1.53-1.95,1.02-3.61,2.39-4.97,4.13-1.36,1.73-2.42,3.67-3.15,5.82-.74,2.15-1.1,4.34-1.1,6.6Z"/><path class="cls-4" d="M134.43,70.23V24.08h19.24c2.04,0,3.9.42,5.59,1.27,1.69.85,3.16,1.97,4.42,3.38,1.26,1.41,2.23,2.99,2.92,4.75.69,1.75,1.04,3.54,1.04,5.36,0,2.51-.56,4.91-1.69,7.18-1.13,2.28-2.71,4.12-4.75,5.53-2.04,1.41-4.42,2.11-7.15,2.11h-13.78v16.58h-5.85ZM140.28,48.46h13.46c1.6,0,3-.43,4.19-1.3,1.19-.87,2.12-2.04,2.79-3.51.67-1.47,1.01-3.08,1.01-4.81,0-1.82-.39-3.46-1.17-4.91-.78-1.45-1.8-2.59-3.06-3.41s-2.64-1.24-4.16-1.24h-13.07v19.17Z"/><path class="cls-4" d="M211.45,65.03v5.2h-31.33V24.08h30.74v5.2h-24.89v14.95h21.64v4.88h-21.64v15.92h25.48Z"/><path class="cls-4" d="M230.5,34.87v35.36h-5.85V24.08h4.94l28.21,36.08V24.15h5.85v46.08h-5.33l-27.82-35.36Z"/><path class="cls-4" d="M317.01,24.08v46.15h-5.85v-21h-25.42v21h-5.85V24.08h5.85v19.96h25.42v-19.96h5.85Z"/><path class="cls-4" d="M347.3,24.08h4.94l18.85,46.15h-6.24l-5.18-13.52h-19.85l-5.2,13.52h-6.24l18.92-46.15ZM357.93,52.16l-8.16-21.32-8.2,21.32h16.36Z"/><path class="cls-4" d="M400.99,70.56c-3.03,0-5.86-.66-8.48-1.98-2.62-1.32-4.91-3.1-6.86-5.33-1.95-2.23-3.47-4.75-4.55-7.54-1.08-2.79-1.62-5.69-1.62-8.68s.54-6.08,1.62-8.87c1.08-2.79,2.59-5.28,4.52-7.44,1.93-2.17,4.2-3.87,6.83-5.1,2.62-1.24,5.47-1.85,8.55-1.85,4.46,0,8.15.93,11.05,2.79s5.09,4.29,6.57,7.28l-4.49,3.12c-1.34-2.69-3.18-4.68-5.52-5.98s-4.92-1.95-7.74-1.95c-2.34,0-4.46.5-6.37,1.5-1.91,1-3.54,2.35-4.91,4.06s-2.41,3.65-3.12,5.82c-.71,2.17-1.07,4.42-1.07,6.76,0,2.47.4,4.8,1.2,6.99.8,2.19,1.94,4.12,3.41,5.79,1.47,1.67,3.18,2.98,5.13,3.93,1.95.95,4.05,1.43,6.3,1.43,2.64,0,5.16-.67,7.54-2.01,2.38-1.34,4.64-3.4,6.76-6.17v6.04c-4.16,4.94-9.08,7.41-14.75,7.41ZM415.03,51.64h-9.95v-4.42h14.89v23.01h-4.94v-18.59Z"/><path class="cls-4" d="M465.41,65.03v5.2h-31.33V24.08h30.74v5.2h-24.89v14.95h21.64v4.88h-21.64v15.92h25.48Z"/><path class="cls-4" d="M484.45,34.87v35.36h-5.85V24.08h4.94l28.21,36.08V24.15h5.85v46.08h-5.33l-27.82-35.36Z"/><path class="cls-4" d="M31.08,173.23v-46.15h5.85v40.95h25.74v5.2h-31.59Z"/><path class="cls-4" d="M74.24,173.23v-46.15h5.85v46.15h-5.85Z"/><path class="cls-4" d="M114.87,173.56c-3.03,0-5.86-.66-8.48-1.98-2.62-1.32-4.91-3.1-6.86-5.33-1.95-2.23-3.47-4.75-4.55-7.54-1.08-2.79-1.62-5.69-1.62-8.68s.54-6.08,1.62-8.87c1.08-2.79,2.59-5.28,4.52-7.44,1.93-2.17,4.2-3.87,6.83-5.1,2.62-1.24,5.47-1.85,8.55-1.85,4.46,0,8.15.93,11.05,2.79s5.09,4.29,6.57,7.28l-4.49,3.12c-1.34-2.69-3.18-4.68-5.52-5.98s-4.92-1.95-7.74-1.95c-2.34,0-4.46.5-6.37,1.5-1.91,1-3.54,2.35-4.91,4.06s-2.41,3.65-3.12,5.82c-.71,2.17-1.07,4.42-1.07,6.76,0,2.47.4,4.8,1.2,6.99.8,2.19,1.94,4.12,3.41,5.79,1.47,1.67,3.18,2.98,5.13,3.93,1.95.95,4.05,1.43,6.3,1.43,2.64,0,5.16-.67,7.54-2.01,2.38-1.34,4.64-3.4,6.76-6.17v6.04c-4.16,4.94-9.08,7.41-14.75,7.41ZM128.91,154.64h-9.95v-4.42h14.89v23.01h-4.94v-18.59Z"/><path class="cls-4" d="M185.06,127.08v46.15h-5.85v-21h-25.42v21h-5.85v-46.15h5.85v19.96h25.42v-19.96h5.85Z"/><path class="cls-4" d="M234.59,132.28h-15.92v40.95h-5.85v-40.95h-15.92v-5.2h37.7v5.2Z"/><path class="cls-4" d="M31.08,276.23v-46.15h30.48v5.2h-24.63v15.41h20.74v4.88h-20.74v20.67h-5.85Z"/><path class="cls-4" d="M105.51,271.03v5.2h-31.33v-46.15h30.74v5.2h-24.89v14.95h21.64v4.88h-21.64v15.92h25.48Z"/><path class="cls-4" d="M145.81,239.77c-.52-.61-1.21-1.19-2.08-1.75-.87-.56-1.84-1.07-2.92-1.53-1.08-.46-2.26-.82-3.54-1.11-1.28-.28-2.61-.42-4-.42-3.55,0-6.17.67-7.87,2.01-1.69,1.34-2.54,3.18-2.54,5.51,0,1.64.43,2.94,1.3,3.89.87.95,2.2,1.73,4,2.33,1.8.61,4.08,1.23,6.86,1.88,3.21.69,5.98,1.54,8.32,2.53s4.14,2.32,5.39,3.98,1.89,3.88,1.89,6.64c0,2.2-.42,4.12-1.27,5.74-.85,1.62-2.03,2.96-3.54,4.02-1.52,1.06-3.29,1.84-5.33,2.33-2.04.5-4.25.75-6.63.75s-4.63-.25-6.86-.75c-2.23-.5-4.34-1.22-6.34-2.18s-3.86-2.15-5.59-3.58l2.79-4.94c.69.74,1.59,1.46,2.7,2.18,1.1.71,2.36,1.38,3.77,1.98,1.41.61,2.94,1.09,4.58,1.46,1.65.37,3.34.55,5.07.55,3.29,0,5.85-.59,7.67-1.78,1.82-1.19,2.73-2.92,2.73-5.21,0-1.73-.51-3.11-1.53-4.15-1.02-1.04-2.53-1.9-4.52-2.59-1.99-.69-4.42-1.38-7.28-2.08-3.12-.78-5.74-1.63-7.87-2.56-2.12-.93-3.72-2.15-4.78-3.66-1.06-1.51-1.59-3.48-1.59-5.9,0-2.94.72-5.42,2.15-7.45s3.4-3.56,5.92-4.6c2.51-1.04,5.35-1.56,8.51-1.56,2.08,0,4.02.22,5.82.65,1.8.43,3.48,1.04,5.04,1.82,1.56.78,2.99,1.71,4.29,2.79l-2.73,4.75Z"/><path class="cls-4" d="M196.77,235.28h-15.92v40.95h-5.85v-40.95h-15.92v-5.2h37.7v5.2Z"/><path class="cls-4" d="M208.6,276.23v-46.15h5.85v46.15h-5.85Z"/><path class="cls-4" d="M232,230.08l15.27,38.81,15.21-38.81h6.18l-18.72,46.15h-5.33l-18.78-46.15h6.17Z"/><path class="cls-4" d="M290.37,230.08h4.94l18.85,46.15h-6.24l-5.18-13.52h-19.85l-5.2,13.52h-6.24l18.92-46.15ZM301,258.16l-8.16-21.32-8.2,21.32h16.36Z"/><path class="cls-4" d="M325.53,276.23v-46.15h5.85v40.95h25.74v5.2h-31.59Z"/></g></svg>