<?xml version="1.0" encoding="UTF-8"?><svg id="Lag_1" xmlns="http://www.w3.org/2000/svg" width="106" height="110" viewBox="0 0 106 110"><defs><style>.cls-1{fill:#f2f2f2;stroke-width:0px;}</style></defs><path class="cls-1" d="M50.9,47.01c2.13,0,4.26.02,6.39-.01.66,0,.96.17.92.87-.04.69.03,1.35-.58,1.92-.26.25-.35.82-.3,1.22.26,2.49.64,4.97.87,7.47.21,2.32.29,4.64.42,6.96.03.54-.19.82-.77.81-1.22-.02-2.44-.02-3.66,0-.53,0-.73-.21-.76-.73-.09-1.52-.2-3.05-.35-4.56-.17-1.67-1.26-2.52-2.72-2.19-.93.21-1.57,1.1-1.67,2.36-.11,1.44-.23,2.89-.29,4.33-.03.61-.25.81-.85.79-1.17-.04-2.34-.03-3.5,0-.57.01-.9-.16-.86-.79.16-2.48.26-4.96.48-7.43.21-2.37.57-4.72.78-7.09.04-.47-.25-1.02-.5-1.46-.23-.4-.58-1.83-.3-2.19.15-.19.52-.28.8-.28,2.16-.02,4.31-.01,6.46-.01h0s0,0,0,0Z"/><path class="cls-1" d="M21.75,69.12c2.54-.67,4.95-1.12,7.31-.42,1.77.52,3.44,1.41,5.09,2.27,3.22,1.68,6.39,1.66,9.49-.16,2.69-1.58,5.53-2.27,8.64-2.01,2.1.17,3.99.9,5.76,1.96,2.35,1.4,4.87,1.84,7.48,1.06,1.44-.44,2.8-1.21,4.12-1.96,2.68-1.51,5.5-1.71,8.45-1.17.43.08.87.15,1.3.23.46.09.65.31.35.76-.07.11-.15.22-.19.34-.63,1.84-1.79,2.51-3.8,2.16-2.23-.39-4.32.4-6.19,1.61-4.28,2.76-8.59,2.5-12.88.11-3.78-2.11-7.55-2.25-11.32-.09-2.89,1.65-5.93,2.38-9.2,1.66-1.19-.26-2.37-.8-3.4-1.45-2.63-1.66-5.43-2.25-8.49-1.76-.24.04-.64-.04-.75-.21-.59-.9-1.11-1.85-1.75-2.92Z"/><path class="cls-1" d="M68.61,66.25c-1.58,0-3.17-.02-4.75.01-.72.02-1.01-.25-.9-.95.35-2.17.69-4.33,1.04-6.5.37-2.34.75-4.69,1.12-7.03.06-.4.07-.73-.49-.86-.47-.11-.5-1.04,0-1.34.86-.52.84-1.3.8-2.11,0-.18-.11-.45-.25-.53-.9-.53-.78-1.45-.92-2.26-.06-.39-.01-.76.53-.72.45.03,1.04-.21,1.12.58.04.39-.11.96.56,1.03.6.06,1.18.08,1.19-.78,0-.85.59-.84,1.23-.85.75-.02.79.46.8.97.01.64.41.67.89.69.55.02.82-.2.85-.76.02-.39-.07-.85.59-.89.96-.06,1.07.04,1.02,1.01-.03.8-.16,1.49-.91,2.01-.63.44-.39,1.91.39,2.44.44.3.58.65.48,1.11-.03.16-.2.42-.32.43-.65.06-.57.5-.51.91.41,2.5.85,4.99,1.25,7.49.33,2.04.61,4.09.92,6.13.08.56-.13.81-.72.8-1.66-.02-3.32,0-4.99,0h0Z"/><path class="cls-1" d="M37.6,44.11c-.25.97.1,2.08-.98,2.84-.58.41-.32,1.9.31,2.44.78.66.74,1.07-.08,1.65-.15.11-.23.45-.19.67.36,2.37.76,4.74,1.14,7.11.35,2.17.68,4.34,1.03,6.5.12.71-.16.96-.89.95-3.17-.03-6.33-.03-9.5,0-.76,0-1.05-.24-.93-.99.5-2.98.99-5.96,1.47-8.94.24-1.48.46-2.96.67-4.44.06-.43.12-.85-.56-.97-.47-.08-.36-.97.04-1.42.35-.4.63-.9.81-1.41.2-.55,0-1.04-.52-1.41-.5-.36-.94-2.01-.61-2.47.16-.22.69-.28,1.02-.23.22.04.52.42.53.65.01.76.35,1,1.07.94.48-.04.7-.23.71-.72.01-.47-.01-.95.71-.93.64.02,1.27-.07,1.29.86.01.69.44.84,1.05.78.41-.03.59-.18.65-.59.18-1.15.44-1.27,1.75-.87h0Z"/><path class="cls-1" d="M75.27,76.14c-.21.3-.3.48-.43.63-3.43,3.86-7.67,6.02-12.91,5.99-2.18-.01-4.27-.56-6.15-1.71-1.9-1.17-3.97-1.76-6.17-1.31-1.22.25-2.46.69-3.55,1.3-3.91,2.17-7.91,2.22-12.01.72-2.81-1.03-5.17-2.72-7.12-4.99-.08-.1-.16-.2-.23-.31-.04-.06-.04-.15-.07-.3,1.4-.22,2.75-.11,4.03.41.96.39,1.88.87,2.8,1.35,3.7,1.9,7.39,1.9,11.01-.14,4.25-2.4,8.47-2.45,12.73-.07,3.89,2.18,7.76,2.14,11.62-.05,1.74-.99,3.55-1.71,5.61-1.57.23.02.45.04.85.08h0Z"/><path class="cls-1" d="M50.88,45.35c-1.5,0-3.01,0-4.52,0-.99,0-1.02-.05-.93-1,.09-.87.22-1.76.17-2.62-.03-.49-.29-1.05-.63-1.4-.4-.41-.65-.78-.59-1.34.01-.13,0-.26,0-.39-.03-1.79-.36-1.57,1.56-1.62.61-.01.82.24.87.81.03.33.17.88.35.92.54.12,1.15.12,1.68-.02.19-.05.32-.62.34-.95.04-.61.33-.79.9-.76.59.04,1.19.04,1.79,0,.54-.03.72.19.76.71.08.97,1.22,1.54,2.06,1.01.2-.12.29-.53.3-.81.02-.67.28-.95,1-.93,1.74.05,1.48-.09,1.48,1.51,0,.76-.04,1.43-.78,1.97-.35.25-.48.95-.5,1.46-.03.85.07,1.7.2,2.55.1.65-.08.9-.75.89-1.58-.03-3.17,0-4.75,0h0Z"/><path class="cls-1" d="M72.42,9.14c-.96.85-1.92,1.7-2.88,2.55-.12.1-.22.21-.34.32-1.12,1.05-1.19,1.07-2.53.27-.21-.13-.42-.56-.36-.78.69-2.65,1.43-5.29,2.16-7.92.01-.05.06-.08.19-.24.5.18,1.07.35,1.58.61.13.07.19.49.13.7-.38,1.42-.81,2.83-1.21,4.25-.04.14-.02.29-.04.62,1.36-1.24,2.57-2.39,3.84-3.49.24-.21.68-.32,1-.28.59.08.81.47.75,1.12-.13,1.47-.16,2.94-.22,4.41,0,.17.05.34.11.67.96-1.41,1.8-2.7,2.7-3.96.16-.23.59-.51.75-.44.5.22.94.59,1.37.94.04.04-.11.37-.22.53-1.48,2.09-2.98,4.17-4.46,6.26-.27.39-.52.44-.97.24-1.33-.59-1.35-.57-1.31-2.02.04-1.14.12-2.27.18-3.41.01-.28,0-.56,0-.84-.07-.05-.13-.09-.2-.14h0Z"/><path class="cls-1" d="M86.65,18.86c-1.48.6-2.96,1.2-4.44,1.8-.78.32-2.09-.28-2.26-1.08-.04-.2.12-.49.26-.69,1.43-2.07,2.87-4.12,4.29-6.18.32-.47.61-.59,1.04-.15.14.15.31.27.49.38.51.32.53.66.16,1.14-.82,1.07-1.58,2.18-2.36,3.27-.12.17-.22.37-.21.68,1.16-.49,2.31-.99,3.47-1.48.38-.16.77-.31,1.14-.5.45-.23.8-.21,1.18.17.36.37.41.71.2,1.18-.65,1.51-1.26,3.04-1.89,4.56.05.05.1.1.15.15.51-.35,1.02-.7,1.52-1.06.78-.56,1.55-1.12,2.31-1.71.4-.31.67-.35,1.03.08.99,1.15,1,1.13-.25,2-1.85,1.28-3.7,2.58-5.54,3.87-.34.24-.71.59-1.07.11-.39-.52-1.36-.73-.93-1.73.57-1.3,1.09-2.63,1.62-3.94.1-.23.17-.48.25-.71-.05-.05-.1-.1-.15-.15h0Z"/><path class="cls-1" d="M13.37,83.02c1.72.1,3.25,1.19,4.13,3.15.21.48.42.69.97.63.18-.02.5.27.59.48.14.33.07.68-.42.72-.43.04-.68.2-.76.7-.37,2.37-2.01,4.02-4.25,4.33-2.16.3-4.23-.87-5.22-3-.26-.55-.45-1.01-1.21-.88-.15.03-.5-.35-.52-.56-.02-.19.28-.58.46-.59.57-.03.7-.31.81-.81.56-2.61,2.45-4.17,5.43-4.17h0ZM15.68,88.36c-1.85.19-3.63.37-5.42.55.26,1.27,1.54,2.13,2.84,2.01,1.38-.12,2.57-1.23,2.58-2.56ZM15.56,87.09c-.49-1.45-1.69-2.12-3.16-1.9-1.24.18-2.24,1.21-2.27,2.48,1.8-.19,3.58-.38,5.43-.58Z"/><path class="cls-1" d="M50.94,25.44c1.12,1.78,2.17,3.37,3.14,5.01.73,1.22,1.39,2.47,2.02,3.75.41.84.19,1.11-.75,1.12-2.98,0-5.97,0-8.95,0-.88,0-1.1-.27-.73-1.09.46-1.01.98-2,1.55-2.95,1.02-1.71,2.1-3.38,3.16-5.06.13-.21.29-.41.56-.78h0Z"/><path class="cls-1" d="M95.61,26.97c2.74.01,5.06,2.38,5.05,5.16,0,2.73-2.26,4.9-5.07,4.88-2.67-.02-4.96-2.41-4.96-5.16,0-2.71,2.23-4.9,4.98-4.88h0ZM92.73,31.96c0,1.64,1.24,2.91,2.87,2.92,1.6,0,2.95-1.29,2.98-2.86.02-1.57-1.32-2.92-2.9-2.92-1.62,0-2.94,1.28-2.94,2.86Z"/><path class="cls-1" d="M97.37,75.87c-1.3-.62-2.59-1.27-3.92-1.84-.63-.27-.71-.58-.36-1.11.12-.17.21-.36.29-.55.21-.5.48-.54.97-.3,2.3,1.13,4.61,2.24,6.94,3.31.51.24.58.46.34.94-.34.68-.6,1.11-1.6,1.13-1.4.04-2.78.57-4.16.9-.72.17-1.43.36-2.15.54,0,.07-.02.14-.03.21,1.14.59,2.28,1.17,3.42,1.76.3.15.6.32.91.44.67.26.84.62.44,1.29-.68,1.17-.45,1.16-1.7.51-2.11-1.11-4.22-2.23-6.34-3.3-.5-.25-.58-.51-.36-.97.33-.66.67-1.2,1.53-1.36,1.58-.29,3.13-.73,4.69-1.11.35-.09.69-.2,1.03-.3.02-.07.03-.13.05-.19h0Z"/><path class="cls-1" d="M44.92,6.73c-.22-1.42-.44-2.84-.67-4.26-.04-.28-.1-.56-.15-.84-.09-.45.08-.65.55-.73,1.43-.23,1.47-.25,1.72,1.19.39,2.27.69,4.55,1.06,6.82.09.57-.11.71-.65.87-.87.25-1.46.02-2.1-.56-1.24-1.11-2.54-2.13-3.82-3.19-.17-.14-.37-.27-.75-.54.17.99.29,1.78.44,2.56.13.69.33,1.36.39,2.05.02.23-.23.59-.46.71-.28.15-.67.18-.99.12-.23-.04-.57-.26-.61-.45-.44-2.05-.82-4.11-1.22-6.16-.1-.53-.25-1.07-.27-1.6,0-.21.23-.51.44-.62.29-.15.65-.18.98-.21.19-.01.44.02.57.14,1.43,1.29,2.84,2.61,4.27,3.91.34.31.72.58,1.07.87.06-.03.12-.05.19-.08h0Z"/><path class="cls-1" d="M26.08,98.69c.51,1.04.56,2.06-.33,2.96-.7.71-1.56,1.06-2.47.61-1.27-.62-2.5-1.34-3.67-2.13-1.61-1.09-1.73-.62-.44-2.5,1.2-1.75,2.42-3.48,3.59-5.25.39-.58.72-.7,1.3-.25.97.74,2.03,1.35,2.96,2.12,2,1.66,1.65,3.42-.79,4.29-.04.02-.07.07-.15.14h0ZM23.43,100.64c.39-.33.77-.52.9-.82.12-.27.06-.72-.1-.97-.21-.33-.59-.56-.93-.79-1.23-.86-1.59-.75-2.16.64-.05.12-.07.36,0,.41.73.51,1.47.99,2.3,1.53ZM23.05,95.92c.57.37,1.02.72,1.52.97.72.35,1.56-.17,1.49-.89-.04-.44-1.35-1.6-1.8-1.57-.11,0-.25.09-.31.18-.3.41-.58.83-.9,1.31h0Z"/><path class="cls-1" d="M52.35,105.64c0-1.36.04-2.73-.01-4.09-.03-.73.23-.95.94-.93,1.21.04,1.22,0,1.22.93,0,2.43.02,4.86-.02,7.29,0,.28-.29.81-.4.8-.6-.08-1.38.46-1.77-.45-.14-.33-.31-.65-.53-.93-1.06-1.31-2.13-2.6-3.21-3.9-.17-.2-.38-.37-.57-.56-.08.03-.16.05-.24.07,0,.45,0,.9,0,1.35-.01,1.16-.06,2.33-.03,3.49.02.71-.27.94-.93.85-.13-.02-.26-.02-.39,0-.68.07-.9-.21-.87-.9.11-2.27.15-4.55.25-6.82.02-.44.1-1.07.39-1.27.53-.36,1.65.03,2.09.55,1.13,1.35,2.25,2.71,3.38,4.06.16.19.33.37.5.55.07-.03.13-.06.2-.1h0Z"/><path class="cls-1" d="M66.81,101.5c-.28-.9-.51-1.69-.78-2.46-.21-.61-.12-1.01.59-1.11.23-.03.45-.11.67-.2.41-.16.63,0,.76.39.79,2.51,1.59,5.02,2.39,7.53.13.4,0,.61-.4.75-1.52.52-1.51.54-2-1-.16-.49-.37-.97-.47-1.47-.12-.56-.42-.64-.9-.49-.89.28-1.78.58-2.68.81-.5.12-.55.38-.44.79.22.8.43,1.6.67,2.39.15.49-.02.7-.5.83-1.42.4-1.44.42-1.85-.97-.64-2.21-1.25-4.42-1.88-6.63-.15-.52-.05-.79.54-.95,1.46-.37,1.39-.39,1.83,1.09.6,2.01.08,2.04,2.26,1.36.69-.21,1.38-.42,2.2-.67h0Z"/><path class="cls-1" d="M84.57,98.48c-.56.4-1.01.81-1.53,1.06-.22.1-.68-.04-.89-.23-.74-.68-1.39-.55-2.14,0-.71.52-1.48.95-2.24,1.4-.43.25-.53.56-.41,1.04.29,1.17-.22,1.93-1.4,2.1-.14.02-.44-.31-.47-.5-.26-1.74-.47-3.48-.69-5.22-.12-1-.2-2.01-.36-3-.11-.64.08-1.04.65-1.32.28-.14.51-.37.8-.47.24-.08.58-.12.77,0,2.53,1.57,5.04,3.17,7.55,4.77.1.07.17.18.36.38h0ZM76.99,99.05c.88-.55,1.6-1,2.46-1.54-1.05-.69-1.9-1.25-2.75-1.81-.06.06-.12.12-.18.18.15.98.29,1.96.48,3.17Z"/><path class="cls-1" d="M61.49,4.76c-.24,1.77-.46,3.54-.73,5.3-.03.18-.36.45-.56.45-.43,0-.88-.08-1.29-.23-.15-.05-.29-.4-.27-.59.12-1.26.3-2.51.44-3.77.05-.44.1-.87.08-1.31-.05-1.09-.67-1.74-1.72-1.86-1.08-.12-1.91.41-2.11,1.5-.26,1.42-.44,2.86-.6,4.29-.12,1.09-1.1,1.62-2.04,1.02-.14-.09-.25-.35-.23-.51.19-1.74.34-3.5.65-5.22.31-1.77,1.43-2.83,3.25-3.06,1.99-.24,4.33.5,4.92,2.7.11.42.13.86.19,1.3Z"/><path class="cls-1" d="M29.85,8.65c.06-1.03-.73-1.59-1.51-1.22-.92.43-1.84.84-2.74,1.29-.81.4-.86-.28-1.14-.71-.32-.49-.15-.73.32-.94,1.7-.78,3.39-1.56,5.07-2.37.43-.21.66-.11.86.31,1.12,2.39,2.26,4.77,3.41,7.14.19.39.06.57-.27.73-1.76.82-3.52,1.65-5.28,2.47-.67.31-.71-.3-.9-.64-.19-.35-.49-.74.12-1.02,1.03-.48,2.05-1,3.1-1.44.62-.26.56-.59.33-1.09-.25-.53-.51-.79-1.11-.47-.71.37-1.46.66-2.17,1.04-.66.35-.85-.05-1.09-.53-.26-.52-.33-.89.32-1.15.74-.3,1.47-.65,2.19-1.01.21-.1.39-.28.51-.37h0Z"/><path class="cls-1" d="M39.98,101.28c-1.22-.38-2.41-.74-3.58-1.13-.56-.19-.91-.15-1.12.49-.21.65-.12,1.01.59,1.19.75.19,1.48.46,2.23.67.51.14.68.41.48.91-.18.46-.21,1.1-.99.86-.79-.24-1.59-.48-2.37-.77-.53-.2-.85-.11-.96.48-.09.47-.64,1.02.3,1.28,1.05.29,2.07.66,3.12.97.6.17.73.5.48,1.04-.2.44-.19,1.03-1.01.74-1.74-.6-3.51-1.12-5.27-1.66-.45-.14-.61-.33-.44-.85.8-2.43,1.55-4.88,2.31-7.32.15-.49.42-.66.93-.49,1.68.54,3.35,1.1,5.05,1.57.8.22.83.64.58,1.26-.09.23-.2.46-.33.75h0Z"/><path class="cls-1" d="M94.93,41.31c1.77.3,3.09,1.12,4.28,2.13.54.46.8.42,1.21-.14,1.01-1.4,2.09-2.75,3.16-4.13.75.92.82,2.31.19,3.14-.76,1.01-1.54,2.01-2.41,3.15.4,0,.67.04.92,0,.71-.13,1.43-.27,2.13-.45.51-.14.74.07.82.53.08.43.17.86.27,1.41-.81.2-1.6.41-2.4.59-1.9.42-3.8.81-5.7,1.23-.6.14-.89.02-1-.66-.2-1.27-.24-1.26,1-1.6.32-.09.66-.12.99-.19.3-.07.59-.16,1.04-.29-.25-.28-.39-.53-.61-.67-.87-.55-1.74-1.13-2.67-1.55-.6-.27-.92-.58-.96-1.24-.02-.37-.15-.74-.26-1.24h0Z"/><path class="cls-1" d="M3.49,83.1c-.43-.84-.78-1.44-1.03-2.08-.1-.25-.02-.61.09-.88.45-1.07.94-2.13,1.41-3.2.1-.22.17-.46.12-.82-.8.38-1.62.72-2.4,1.15-.65.36-1.06.28-1.28-.46-.06-.2-.17-.38-.27-.56-.23-.4-.14-.64.3-.85,2.39-1.12,4.78-2.27,7.15-3.42.4-.19.63-.08.8.3.69,1.54.93,1.34-.65,2.06-.55.25-1.07.55-1.61.82,0,.11,0,.23,0,.34,1.14.38,2.25.91,3.42,1.1.83.13,1.26.43,1.51,1.16.1.31.24.6.41,1.03-2,.07-3.66-.63-5.38-1.47-.85,1.91-1.67,3.75-2.58,5.76h0Z"/><path class="cls-1" d="M105.33,65.46c-.02.9-.59,2.26-1.85,3.31-.51.43-.85.45-1.19-.21-.52-1-.55-.98.29-1.75.65-.6,1.03-1.33.87-2.21-.06-.34-.36-.79-.66-.89-.25-.09-.77.15-.97.4-.35.43-.59.97-.8,1.49-.67,1.6-1.7,2.4-3.04,2.31-1.11-.07-2.03-.79-2.37-1.84-.49-1.54.19-3.86,1.42-4.91.46-.39.72-.41,1.08.17.43.69.49,1.14-.13,1.79-.39.42-.51,1.15-.59,1.77-.04.25.27.7.52.81.2.09.65-.12.85-.34.29-.31.46-.74.66-1.13.15-.3.25-.63.41-.92.83-1.58,1.9-2.12,3.4-1.75,1.41.35,2.16,1.46,2.12,3.9h0Z"/><path class="cls-1" d="M89.02,90.51c-.78-1.71-1.56-3.42-2.33-5.14-.51-1.12-.2-1.96,1.06-2.67.61,1.33,1.22,2.65,1.83,3.98.67,1.48,1.33,2.97,2.01,4.45.21.45.21.78-.17,1.16-1.39,1.43-.87,1.26-2.66.59-2.45-.91-4.9-1.84-7.35-2.76-.69-.26-.7-.35-.14-.85.19-.17.41-.32.58-.51.36-.4.75-.45,1.25-.24,1.68.67,3.38,1.31,5.07,1.95.23.09.47.15.7.22.05-.06.09-.11.14-.17Z"/><path class="cls-1" d="M59.29,85.98c-5.6,1.57-11.18,1.59-16.78,0,2.11-.26,3.9-1.35,5.82-2.05.88-.32,1.85-.47,2.79-.52.67-.03,1.4.14,2.04.38,2.02.77,3.9,1.91,6.13,2.19h0Z"/><path class="cls-1" d="M68.58,42.46c-.96,0-1.92,0-2.88,0-.41,0-.59-.14-.62-.58-.13-2,1.49-3.68,3.56-3.68,2.1,0,3.69,1.63,3.58,3.65-.03.47-.24.63-.68.62-.99-.01-1.97,0-2.96,0h0s0,0,0,0Z"/><path class="cls-1" d="M33.15,42.47c-.93,0-1.87-.02-2.8,0-.53.01-.73-.19-.73-.73,0-2.08,1.42-3.53,3.5-3.55,2.03-.02,3.55,1.48,3.59,3.5.01.58-.2.79-.76.78-.93-.02-1.87,0-2.8,0Z"/><path class="cls-1" d="M34.42,31.26c.38-.42.75-.84,1.15-1.24.34-.34.37-.63,0-.98-.42-.4-.79-.85-1.19-1.28.04-.06.07-.13.11-.19.54.11,1.09.18,1.62.33.57.16.87.03,1-.58.12-.53.36-1.02.55-1.53.07.01.14.02.2.04.17.53.34,1.06.5,1.59.13.43.36.64.86.5.56-.16,1.13-.24,1.7-.35.04.06.08.13.12.19-.39.43-.76.87-1.17,1.28-.34.34-.38.62,0,.97.42.4.79.85,1.19,1.29-.03.06-.07.12-.1.18-.59-.12-1.19-.2-1.77-.37-.47-.13-.68.05-.8.45-.17.54-.34,1.08-.71,1.67-.2-.52-.46-1.03-.58-1.56-.13-.59-.4-.69-.94-.53-.53.16-1.09.23-1.64.34-.03-.07-.06-.15-.09-.23h0Z"/><path class="cls-1" d="M61.58,32.22c2.24-.48,3.08-1.2,3.13-2.61.03-.84-.27-1.58-.95-2.01-.62-.39-1.37-.58-2.04-.85.84-1.07,3.13-.84,4.21.13,1.46,1.31,1.65,3.41.41,4.86-1.26,1.46-3.31,1.69-4.76.47h0Z"/><path class="cls-1" d="M49.13,22.59c0-.99.78-1.73,1.79-1.72,1.03,0,1.73.73,1.72,1.77,0,1.02-.74,1.74-1.77,1.73-.99,0-1.75-.78-1.74-1.78Z"/><path class="cls-1" d="M15.56,87.09c-1.86.2-3.63.39-5.43.58l5.43-.58Z"/></svg>