<?xml version="1.0" encoding="UTF-8"?><svg id="Lag_1" xmlns="http://www.w3.org/2000/svg" width="194.11" height="42.9" xmlns:xlink="http://www.w3.org/1999/xlink" viewBox="0 0 194.11 42.9"><defs><style>.cls-1{clip-path:url(#clippath);}.cls-2{stroke:#f2f2f2;stroke-miterlimit:10;}.cls-2,.cls-3{fill:none;}.cls-3,.cls-4{stroke-width:0px;}.cls-4{fill:#f2f2f2;}</style><clipPath id="clippath"><rect class="cls-3" width="194.11" height="42.9"/></clipPath></defs><g class="cls-1"><path class="cls-2" d="M30.39.2h163.51v42.5H51.49c.13-1.47.4-2.94.37-4.4-.11-4.85-2.53-8.69-5.59-12.21-4.5-5.18-9.07-10.32-13.51-15.56-2.52-2.98-3.67-6.4-2.37-10.31h0ZM123.47,14.45c-.05.2-.1.4-.14.6,3.5,1.13,2.09,3.97,2.16,6.15.07,2.27,1.06,5.08-2.14,6.49h5.73c-.81-.92-1.94-1.62-2.03-2.42-.25-2.48-.09-5-.09-7.5,1.05,1.82,1.66,3.72,2.46,5.55.66,1.52,1.54,2.94,2.32,4.4.8-1.48,1.68-2.92,2.38-4.45.83-1.82,1.49-3.72,2.22-5.58.41,1.95.43,3.77.4,5.59-.02,1.69.65,3.72-1.93,4.46h7.29c-2.09-.75-1.8-2.36-1.76-3.89.04-1.42-.05-2.84.02-4.25.1-1.74-.89-3.88,1.83-4.92-1.47-.26-2.78-.18-4.07-.29-1.44-.12-2.15.34-2.59,1.8-.65,2.17-1.63,4.25-2.62,6.75-1.02-2.7-1.82-4.92-2.7-7.1-.21-.51-.64-1.29-1.02-1.32-1.9-.13-3.82-.06-5.73-.06h0ZM163.1,15.13c-.1-.23-.21-.47-.31-.7-1.78,0-3.55-.06-5.33.05-.33.02-.73.66-.9,1.09-.95,2.33-1.85,4.69-2.91,7.43-1.01-2.67-1.82-4.88-2.69-7.06-.21-.53-.6-1.38-.95-1.4-1.95-.14-3.92-.06-5.89-.06l-.41.58c3.23.55,2.54,2.81,2.58,4.74.02.87.01,1.75,0,2.63-.03,2,.49,4.25-2.22,5.25h6.05c-1-.86-2.2-1.4-2.26-2.03-.22-2.65-.09-5.32-.09-7.98,1.31,2.76,2.3,5.54,3.41,8.29.26.66.87,1.17,1.32,1.75.42-.55.97-1.05,1.23-1.67,1.16-2.76,2.24-5.55,3.35-8.34.44,1.7.48,3.34.43,4.98-.05,1.85.8,4.09-1.93,5.03h7.3c-2.11-.71-1.86-2.31-1.82-3.86.05-1.82.02-3.64,0-5.46-.01-1.45-.34-3.04,2.04-3.27h0ZM92.89,27.75h7.38c-2.28-1.68-2.66-3.13-1.56-6.09,1.2,1.61,2.27,3.02,3.31,4.45,1.49,2.05,3.72,2.56,5.87,1.53-1.78-1.95-3.62-3.97-5.57-6.1.87-.48,1.43-.72,1.91-1.07,1.84-1.35,1.82-4.36-.19-5.22-3.63-1.55-7.44-.66-11.37-.49,2.74.98,2.02,3.11,2.06,4.94.02,1.28.02,2.56,0,3.83-.02,1.59.52,3.45-1.83,4.23h0ZM107.79,21.19c0,4.23,2.9,7.06,7.33,7.14,4.2.07,7.4-3.01,7.41-7.12,0-4.07-3.27-7.28-7.35-7.21-4.26.07-7.37,3.1-7.38,7.2h0ZM75.89,14.82c-1.55-.23-2.96-.5-4.38-.66-2.77-.31-5.21,1.19-5.7,3.43-.45,2.12.81,3.8,3.62,4.82,1.01.37,2.08.64,3,1.17.48.28.99,1.06.95,1.56-.06.61-.56,1.37-1.1,1.7-1.37.83-3.19.21-4.4-1.37-.62-.81-1.16-1.67-2.04-2.97v5.06c1.2.15,2.12.31,3.05.37,1.46.09,2.97.34,4.39.13,2.02-.31,3.53-2.06,3.69-3.8.18-1.85-.9-3.33-3.12-4.21-1.19-.47-2.47-.76-3.56-1.4-.54-.32-1.1-1.31-.99-1.87.11-.59.94-1.3,1.58-1.48,1.54-.43,2.52.59,3.3,1.77.46.7.84,1.44,1.25,2.16.15-.04.3-.08.46-.12v-4.31h0ZM179,27.79c-.94-1.55-1.92-2.88-2.59-4.35-1.2-2.62-2.17-5.35-3.34-7.99-.21-.49-.93-1.08-1.37-1.05-.56.04-1.35.54-1.58,1.05-1.13,2.44-2.09,4.95-3.14,7.42-.77,1.8-1.12,3.91-3.4,4.81h6.05c-1.21-.97-2.76-.72-2.2-2.59.77-2.55,2.64-1.6,4.1-1.62,2.06-.03,1.52,1.91,2.12,3.02-.67.34-1.2.6-1.73.87.04.14.08.28.12.42h6.96ZM88.63,27.76c-.89-.88-1.98-1.45-2.02-2.08-.17-3.33-.08-6.67-.08-9.85,2.86-1.15,2.97,1.66,4.57,2.78v-4.04h-12.7v4.14c1.5-1.41,1.81-4.06,4.58-2.86,0,2.39.02,4.8,0,7.22-.02,1.76.68,3.87-1.99,4.69h7.65Z"/><path class="cls-4" d="M44.59,42.7H0V.2h23.49c-1.3,3.91-1.06,7.76.87,11.34,1.17,2.17,2.74,4.16,4.35,6.05,3.85,4.52,7.85,8.9,11.74,13.38,2.9,3.35,5.09,7,4.14,11.72Z"/><path class="cls-4" d="M123.47,14.45c1.91,0,3.83-.07,5.73.06.37.03.81.8,1.02,1.32.88,2.19,1.68,4.4,2.7,7.1.99-2.5,1.96-4.58,2.62-6.75.44-1.46,1.16-1.92,2.59-1.8,1.3.11,2.61.02,4.07.29-2.72,1.04-1.73,3.18-1.82,4.92-.08,1.41.02,2.83-.02,4.25-.04,1.53-.34,3.14,1.76,3.89h-7.29c2.58-.74,1.91-2.77,1.93-4.46.03-1.82,0-3.63-.4-5.59-.73,1.87-1.4,3.76-2.22,5.58-.69,1.53-1.58,2.97-2.38,4.45-.78-1.47-1.66-2.89-2.32-4.4-.8-1.83-1.41-3.73-2.46-5.55,0,2.51-.15,5.03.09,7.5.08.8,1.21,1.5,2.02,2.42h-5.73c3.2-1.41,2.21-4.22,2.14-6.49-.07-2.17,1.34-5.01-2.16-6.15.05-.2.1-.4.14-.6h0Z"/><path class="cls-4" d="M163.1,15.13c-2.38.23-2.05,1.83-2.04,3.27.01,1.82.04,3.64,0,5.46-.04,1.55-.29,3.14,1.82,3.86h-7.3c2.73-.94,1.89-3.18,1.93-5.03.04-1.64,0-3.28-.43-4.98-1.11,2.78-2.19,5.58-3.35,8.34-.26.62-.81,1.11-1.23,1.67-.45-.58-1.06-1.1-1.32-1.75-1.1-2.74-2.1-5.53-3.41-8.29,0,2.66-.12,5.34.09,7.98.05.63,1.26,1.17,2.26,2.03h-6.05c2.71-1,2.19-3.24,2.22-5.25.01-.87.02-1.75,0-2.63-.04-1.93.65-4.19-2.58-4.74l.41-.58c1.96,0,3.93-.07,5.89.06.36.02.74.87.95,1.4.87,2.18,1.68,4.39,2.69,7.06,1.07-2.75,1.96-5.1,2.91-7.43.17-.43.58-1.07.9-1.09,1.77-.11,3.55-.05,5.33-.05.1.23.21.47.31.7h0Z"/><path class="cls-4" d="M92.89,27.75c2.35-.77,1.81-2.63,1.83-4.23.01-1.28.02-2.56,0-3.83-.03-1.83.69-3.97-2.06-4.94,3.93-.17,7.74-1.06,11.37.49,2.02.86,2.03,3.87.19,5.22-.48.35-1.04.59-1.91,1.07,1.96,2.14,3.8,4.16,5.57,6.1-2.15,1.03-4.39.52-5.87-1.53-1.04-1.43-2.11-2.84-3.31-4.45-1.1,2.96-.73,4.42,1.56,6.09h-7.38,0ZM98.23,21.33c1.24-.68,2.48-.97,2.94-1.73.46-.76.51-2.23.05-2.95-.46-.72-1.77-.91-2.99-1.46v6.14Z"/><path class="cls-4" d="M107.79,21.19c0-4.1,3.11-7.12,7.38-7.2,4.08-.07,7.36,3.14,7.35,7.21,0,4.11-3.21,7.19-7.41,7.12-4.43-.08-7.33-2.91-7.33-7.14h0ZM118.65,21.26c-.25-1.4-.23-2.85-.8-3.99-.44-.88-1.61-1.86-2.51-1.92-.88-.06-2.3.78-2.68,1.59-1.28,2.78-1.29,5.78.04,8.57.38.79,1.66,1.68,2.46,1.61.92-.07,2.12-.96,2.56-1.81.62-1.2.65-2.7.93-4.05h0Z"/><path class="cls-4" d="M75.89,14.82v4.31c-.15.04-.3.08-.46.12-.41-.72-.79-1.47-1.25-2.16-.77-1.18-1.76-2.2-3.3-1.77-.64.18-1.47.89-1.58,1.48-.11.56.44,1.55.99,1.87,1.08.64,2.37.93,3.56,1.4,2.22.88,3.3,2.36,3.12,4.21-.17,1.74-1.67,3.48-3.69,3.8-1.42.22-2.93-.03-4.39-.13-.93-.06-1.85-.22-3.05-.37v-5.06c.88,1.3,1.42,2.17,2.04,2.97,1.21,1.58,3.03,2.2,4.4,1.37.54-.33,1.04-1.09,1.1-1.7.05-.5-.46-1.28-.95-1.56-.92-.53-1.99-.81-3-1.17-2.82-1.02-4.08-2.7-3.62-4.82.48-2.25,2.93-3.74,5.7-3.43,1.42.16,2.83.42,4.38.66h0Z"/><path class="cls-4" d="M179,27.79h-6.96c-.04-.14-.08-.28-.12-.42.53-.27,1.06-.53,1.73-.87-.6-1.11-.06-3.05-2.12-3.02-1.47.02-3.33-.93-4.11,1.62-.56,1.87.98,1.62,2.2,2.59h-6.05c2.28-.9,2.63-3.02,3.4-4.81,1.06-2.47,2.01-4.99,3.14-7.42.24-.51,1.02-1.02,1.58-1.05.44-.03,1.16.57,1.37,1.05,1.17,2.64,2.14,5.36,3.34,7.99.67,1.47,1.65,2.79,2.59,4.35ZM172.1,22.33c-.58-1.4-1.09-2.64-1.81-4.36-.67,1.75-1.14,2.99-1.67,4.36h3.47Z"/><path class="cls-4" d="M88.63,27.76h-7.64c2.67-.82,1.97-2.93,1.99-4.69.02-2.42,0-4.83,0-7.22-2.77-1.2-3.08,1.45-4.58,2.86v-4.14h12.7v4.04c-1.61-1.12-1.71-3.94-4.57-2.78,0,3.19-.09,6.52.08,9.85.03.63,1.13,1.2,2.02,2.08h0Z"/></g></svg>