<?xml version="1.0" encoding="UTF-8"?><svg id="Lag_1" xmlns="http://www.w3.org/2000/svg" width="169.49" height="48.53" xmlns:xlink="http://www.w3.org/1999/xlink" viewBox="0 0 169.49 48.53"><defs><style>.cls-1{clip-path:url(#clippath);}.cls-2{fill:none;}.cls-2,.cls-3{stroke-width:0px;}.cls-3{fill:#f2f2f2;}</style><clipPath id="clippath"><rect class="cls-2" width="169.49" height="48.53"/></clipPath></defs><g class="cls-1"><path class="cls-3" d="M105.09,0c.68.27,1.35.59,2.05.8,8.22,2.43,12.43,8.59,11.66,17.06-.75,8.19-6.1,13.7-14.45,14.39-2.74.22-5.67-.11-8.31-.87-7.16-2.08-11.07-7.67-10.98-15.02.1-7.91,4.03-13.38,11.19-15.57.7-.22,1.37-.53,2.06-.79h6.78ZM106.89,15.92c-.28-2.94-.4-5.59-.83-8.2-.32-1.93-1.19-3.66-3.57-3.73-2.31-.07-3.42,1.45-3.95,3.38-1.6,5.83-1.93,11.77-.72,17.72.37,1.83,1.28,3.41,3.51,3.48,2.16.07,3.37-1.28,3.8-3.14.75-3.21,1.21-6.49,1.75-9.51h0Z"/><path class="cls-3" d="M0,13.7c7.63-1.96,15.27-3.93,22.91-5.87.99-.25,2-.4,3.31-.65.74,2.76,1.44,5.36,2.14,8-1.89,1.34-3.25,1.08-4.41-.7-1.14-1.74-2.64-1.86-4.67-.83,1.75,6.73,3.44,13.42,5.26,20.07.18.66,1.08,1.15,1.69,1.67.91.77,1.85,1.49,2.79,2.23-.13.3-.26.6-.4.9-5.04,1.34-10.08,2.67-15.26,4.04-.82-1.37-1.49-2.56.19-3.89.53-.42.94-1.55.79-2.2-1.64-6.8-3.41-13.56-5.14-20.32-2.32.07-3.55.99-3.58,3.07-.02,2.04-.99,2.95-3.15,2.95C1.67,19.76.83,17.31,0,14.85v-1.14H0Z"/><path class="cls-3" d="M169.49,12.56c-1.08.98-2.21,1.91-3.24,2.96-.5.51-1.01,1.18-1.18,1.86-1.53,5.87-3.03,11.74-4.4,17.65-.19.84.42,1.87.66,2.81.29,1.11.58,2.22,1.05,4-5.76-1.42-10.63-2.63-16.43-4.06,1.18-1.34,1.93-2.16,2.66-3,.74-.87,1.86-1.64,2.14-2.64,1.51-5.48,2.85-11.01,4.14-16.54.21-.93.3-2.51-.21-2.89-2.03-1.52-1.31-3.03-.27-5.17,4.99,1.29,10.03,2.6,15.08,3.9v1.14h0Z"/><path class="cls-3" d="M86.44,48.53c-.51-.41-1.04-.78-1.52-1.22-2.19-1.99-2.31-5.04-.28-7.02,1.87-1.83,4.75-1.8,6.58.05,1.98,2.01,1.82,5.09-.39,7.02-.49.43-1.04.79-1.56,1.18h-2.82,0Z"/><path class="cls-3" d="M99.44,48.53c-.36-.3-.72-.59-1.06-.9-1.99-1.82-2.24-4.18-.62-5.97,1.51-1.67,4.2-1.73,5.77-.13,1.64,1.67,1.51,4.24-.31,6.02-.33.32-.64.65-.97.97h-2.82Z"/><path class="cls-3" d="M73.45,48.53c-.32-.33-.63-.66-.95-.98-1.9-1.9-2.06-4.3-.39-6.01,1.58-1.6,4.27-1.55,5.77.13,1.63,1.81,1.42,4.23-.54,5.98-.34.31-.72.59-1.07.88h-2.82Z"/><path class="cls-3" d="M111.3,48.53c-.37-.3-.76-.57-1.1-.9-1.53-1.5-1.71-3.21-.32-4.81,1.31-1.5,3.04-1.63,4.53-.3,1.7,1.52,1.65,3.29.11,5-.31.34-.64.67-.97,1h-2.26,0Z"/><path class="cls-3" d="M62.15,48.53c-.31-.35-.6-.69-.91-1.04-1.41-1.59-1.51-3.3-.02-4.8,1.38-1.4,3.1-1.44,4.51-.05,1.5,1.48,1.44,3.17.08,4.81-.29.35-.56.73-.84,1.08h-2.82Z"/><path class="cls-3" d="M52.54,48.53c-.45-.47-1.25-.91-1.28-1.4-.07-1.1-.1-2.52.52-3.24.49-.58,2.29-.77,2.89-.31.74.58,1.03,1.98,1.14,3.06.06.59-.65,1.26-1.01,1.89h-2.26Z"/><path class="cls-3" d="M121.47,48.53c-.45-.47-1.24-.92-1.27-1.41-.07-1.1-.09-2.52.52-3.23.5-.58,2.29-.76,2.89-.3.74.58,1.02,1.98,1.14,3.06.06.59-.65,1.26-1.02,1.88h-2.26Z"/><path class="cls-3" d="M43.5,48.53c-.19-.51-.59-1.06-.54-1.54.09-.76.3-1.8.82-2.12.53-.33,1.75-.21,2.2.22.45.42.42,1.47.42,2.23,0,.41-.42.81-.64,1.2h-2.26Z"/><path class="cls-3" d="M129.94,48.53c-.23-.5-.67-1.02-.63-1.5.06-.76.26-1.71.77-2.16.4-.35,1.6-.35,1.99,0,.5.45.69,1.4.75,2.16.04.48-.4,1-.62,1.5h-2.26Z"/><path class="cls-3" d="M69.85.98c.37,2.17.93,3.88-1.46,4.85-.46.19-.85,1.69-.61,2.32,1.49,3.88,3.18,7.67,5.5,11.53.97-4.16,1.99-8.31,2.85-12.49.11-.56-.5-1.32-.88-1.92-.73-1.16-1.54-2.27-2.32-3.4.23-.27.46-.55.68-.83,3.25-.15,6.5-.3,9.71-.44.79,1.86.79,3.12-.88,4.4-1,.77-1.64,2.27-2.02,3.57-2.04,7.02-4.11,14.03-5.83,21.13-.79,3.25-3.13,2.3-5.05,2.67-1.8.35-3.1.12-3.92-2.04-2.44-6.38-5.12-12.66-7.78-18.95-.86-2.03-1.2-4.38-3.68-5.47-.61-.27-.6-1.96-.99-3.4,5.82-.54,11.19-1.03,16.67-1.54h.02Z"/><path class="cls-3" d="M120.18,33.3c1.19-1.43,2.03-2.34,2.77-3.33.64-.85,1.53-1.72,1.71-2.69,1.07-5.69,2.01-11.4,2.86-17.13.14-.91-.33-1.95-.64-2.88-.44-1.3-1-2.56-1.5-3.84.28-.21.55-.42.83-.63,4.97.76,9.95,1.52,15.07,2.31-.03,1.94.14,3.59-2.15,4.17-.54.14-1.15,1.06-1.26,1.7-1.19,6.7-2.28,13.42-3.4,20.19,2.59.86,4.5.36,5.89-1.74,1.11-1.69,2.5-2.12,4.54-1.12-.57,2.88-1.14,5.73-1.73,8.72-7.41-1.2-14.61-2.36-22.98-3.72h0Z"/><path class="cls-3" d="M36.89,36.65c.29-1.45.16-2.95.77-3.38,1.71-1.22,1.46-2.71,1.2-4.31-.86-5.24-1.66-10.49-2.72-15.69-.26-1.26-1.54-2.28-2.25-3.47-.67-1.11-1.21-2.3-2.07-3.96,5.64-.95,10.6-1.78,15.63-2.62.69,1.91,1.35,3.35-.46,4.81-.6.49-.84,1.89-.71,2.8.81,5.82,1.72,11.63,2.76,17.41.17.93,1.18,1.71,1.81,2.55.68.91,1.37,1.82,2.36,3.14-5.82.96-10.79,1.79-16.32,2.7h0Z"/></g></svg>