<?xml version="1.0" encoding="UTF-8"?><svg id="Lag_1" xmlns="http://www.w3.org/2000/svg" width="111.82" height="71.74" xmlns:xlink="http://www.w3.org/1999/xlink" viewBox="0 0 111.82 71.74"><defs><style>.cls-1{clip-path:url(#clippath);}.cls-2{fill:none;}.cls-2,.cls-3{stroke-width:0px;}.cls-3{fill:#f2f2f2;}</style><clipPath id="clippath"><rect class="cls-2" width="111.82" height="71.74"/></clipPath></defs><g class="cls-1"><path class="cls-3" d="M53.29,39.1c-1.24-.16-2.49-.25-3.72-.48-3.2-.6-6.07-1.88-8.42-4.19-2.48-2.45-3.93-5.46-4.21-8.88-.27-3.21-.21-6.46-.22-9.69-.01-5.11.04-10.23.07-15.34v-.51c1.09.47,2.12.92,3.15,1.37,2.18.96,4.35,1.94,6.54,2.86.44.18.51.42.51.83-.03,5.24-.06,10.49-.07,15.73,0,3.27.05,6.55.7,9.77.46,2.26,1.1,4.47,2.8,6.14.79.78,1.75,1.37,2.64,2.04.09.06.18.12.27.18-.01.06-.02.11-.04.17h0Z"/><path class="cls-3" d="M56.06,39.02c.32-.21.49-.34.68-.44,2.64-1.47,4.14-3.76,4.87-6.63.84-3.34,1.02-6.75,1.01-10.18-.02-5.63-.04-11.27-.04-16.9,0-.18.17-.46.33-.53,3.22-1.43,6.44-2.83,9.66-4.24.05-.02.1-.01.21-.03v.62c0,7.25-.01,14.51.04,21.76.02,2.93-.42,5.74-1.76,8.36-1.97,3.84-5.17,6.2-9.28,7.41-1.81.53-3.67.81-5.72.83h0Z"/><path class="cls-3" d="M61.45,58.6h2.16c2.16,0,4.32,0,6.48.05.62.01,1.25.16,1.86.33,1.28.34,2.02,1.18,2.04,2.52.02,1.22-.39,2.3-1.53,2.89-.63.33-1.36.47-1.98.68,1.99,2.02,4.04,4.09,6.2,6.28-.86,0-1.6-.08-2.32.02-1.23.17-2.02-.35-2.84-1.24-1.49-1.63-3.16-3.09-4.76-4.62-.13-.12-.29-.22-.42-.33-.06.05-.11.07-.11.09,0,1.51-.02,3.01-.01,4.51,0,.44.21.74.68.82.31.06.62.17.92.19.35.03.46.18.34.53h-6.9c.21-.23.32-.46.46-.48,1.76-.23,1.52-.67,1.53-2.01.02-2.71,0-5.43,0-8.14,0-1.42-.02-1.43-1.43-1.62-.29-.04-.54-.06-.36-.48h0ZM66.19,61.81c0,.76.01,1.52,0,2.28,0,.35.13.49.46.44.77-.09,1.56-.13,2.31-.32,1.1-.28,1.78-1.18,1.84-2.25.06-1.13-.43-2.06-1.55-2.44-.82-.28-1.74-.3-2.61-.44-.35-.06-.46.11-.45.44.02.76,0,1.52,0,2.28h0Z"/><path class="cls-3" d="M44.58,71.29c.22-.23.32-.44.47-.47,1.57-.42,1.57-.41,1.57-2.06v-7.86c0-.2,0-.41,0-.62-.03-.8-.19-1-.98-1.17-.22-.05-.45-.06-.65-.14-.12-.05-.2-.19-.3-.3.03-.04.06-.08.09-.12h1.61c2.22,0,4.43-.03,6.65,0,.72,0,1.46.09,2.15.28,1.9.53,2.48,3.03,1.08,4.43-.74.74-1.69.97-2.67,1.15-.11.02-.22.03-.33.12.59.08,1.19.13,1.77.25,1.21.25,2.3.69,2.76,1.98.56,1.59-.19,3.39-1.81,3.92-1.15.38-2.39.57-3.6.62-2.46.09-4.92.03-7.38.03-.07,0-.15-.01-.42-.05h0ZM49.62,70.68c.74,0,1.4.02,2.07,0,.39-.02.78-.09,1.15-.19,1.22-.31,1.71-.9,1.9-2.3.17-1.21-.25-2.16-1.24-2.7-1.21-.64-2.52-.67-3.88-.58v5.77ZM49.63,64.37c.92-.12,1.82-.18,2.67-.38,1.02-.24,1.6-.99,1.66-2.05.07-1.03-.23-1.93-1.19-2.46-1-.55-2.07-.43-3.14-.39v5.28Z"/><path class="cls-3" d="M105.21,71.72c-1.21-2.86-2.42-5.73-3.69-8.74-1.27,3.04-2.46,5.9-3.65,8.76-.07,0-.13-.02-.19-.02-.26-.76-.52-1.52-.78-2.28-1.02-2.93-2.07-5.84-3.06-8.78-.33-.98-.9-1.55-1.95-1.58-.3,0-.53-.08-.37-.51h2.48c1.18,0,2.35-.01,3.52,0,.15,0,.3.1.46.16-.13.1-.25.22-.39.29-.11.06-.25.07-.37.09-.46.12-.66.36-.5.86.4,1.24.79,2.48,1.19,3.71.35,1.07.71,2.14,1.11,3.39,1.21-2.88,2.36-5.61,3.51-8.34.06,0,.11,0,.18-.01,1.18,2.75,2.35,5.5,3.58,8.37.27-.74.5-1.37.73-2.01.56-1.57,1.12-3.15,1.67-4.72.06-.16.1-.32.14-.48.1-.39,0-.65-.45-.71-.37-.05-.74-.1-1.1-.19-.13-.03-.23-.17-.34-.26.12-.06.24-.16.36-.16.76,0,1.53.02,2.29.02.64,0,1.27-.02,1.9-.02.11,0,.23.11.34.17-.1.08-.2.23-.3.23-1.4,0-1.87.95-2.26,2.07-1.18,3.35-2.39,6.67-3.6,10.01-.08.22-.18.43-.27.64-.06,0-.12,0-.18.01h0Z"/><path class="cls-3" d="M29.95,71.54c-.25-.16-.52-.28-.74-.47-2.58-2.17-5.15-4.35-7.72-6.53-.67-.57-1.37-1.12-2.17-1.78v6c0,1.22.29,1.6,1.47,1.98.1.03.24.03.32.1.12.11.2.26.29.39-.13.07-.27.18-.4.19-1.18,0-2.35,0-3.52-.01-.3,0-.6.03-.89,0-.11,0-.21-.14-.31-.21.08-.1.16-.21.25-.31.02-.02.07-.02.1-.03,1.56-.52,1.7-.7,1.7-2.34,0-3.07-.03-6.14-.04-9.21v-.84c.35.22.59.34.78.5,3.17,2.65,6.34,5.3,9.51,7.95.14.11.28.22.49.38.01-.25.03-.4.03-.56v-6.3c0-.89-.05-.96-.9-1.2-.27-.08-.55-.09-.81-.19-.15-.06-.26-.24-.39-.36.04-.04.08-.09.11-.13h4.9c.14.35.05.52-.32.51-.04,0-.08,0-.11,0-1.32.18-1.46.33-1.46,1.66,0,3.28,0,6.55,0,9.82v.83c-.05.05-.1.1-.15.16h0Z"/><path class="cls-3" d="M15.9,58.54c.13.37.02.48-.32.55-1.63.33-1.63.35-1.63,2,0,1.88,0,3.76,0,5.64,0,2.89-1.14,4.23-4.01,4.67-1.52.23-3.05.17-4.55-.2-2.33-.57-3.48-2.06-3.49-4.46,0-2.04,0-4.09,0-6.14,0-1.2-.12-1.33-1.33-1.55-.25-.05-.66.05-.55-.52h1.1c1.74,0,3.47,0,5.2,0,.15,0,.29.12.44.19-.13.1-.24.26-.38.31-1.5.44-1.5.43-1.5,1.96,0,1.92.1,3.84-.02,5.75-.21,3,2.53,4.53,4.89,4.13,2.13-.37,3.2-1.6,3.21-3.74.01-2.12,0-4.24,0-6.36,0-1.02-.23-1.31-1.22-1.55-.18-.04-.38-.04-.54-.12-.15-.07-.27-.21-.39-.33.14-.07.28-.21.43-.21,1.23-.02,2.46,0,3.69,0h.98,0Z"/><path class="cls-3" d="M89.04,68.14c.39-.06.74-.1,1.12-.16v3.4h-3.07c-2.65,0-5.29,0-7.94,0-.27,0-.75-.09-.76-.17-.04-.5.42-.28.66-.34.96-.23,1.07-.3,1.07-1.3.01-2.99.01-5.99,0-8.98,0-1.18-.06-1.22-1.22-1.45-.09-.02-.2-.02-.27-.07-.11-.08-.2-.19-.31-.29.13-.07.25-.19.38-.2.31-.02.63.01.95.01,3.19,0,6.37-.02,9.56-.03h.65v2.86c-.29-.04-.57-.04-.83-.12-.13-.04-.24-.21-.33-.35-.04-.07-.02-.18-.03-.27-.15-1.2-.4-1.48-1.62-1.52-1.3-.05-2.6,0-3.94,0v5.08c.97,0,1.93.03,2.88,0,.54-.02.7-.46.81-.93.04-.16.2-.29.3-.44.06.16.17.31.17.47.02.84.02,1.68,0,2.51,0,.13-.13.26-.19.38-.09-.11-.26-.21-.28-.33-.09-.62-.43-.95-1.03-.96-.87-.02-1.75,0-2.66,0v5.91c.13.02.27.06.41.05,1.27-.02,2.53-.02,3.8-.08,1.03-.04,1.38-.37,1.55-1.39.07-.4.1-.81.15-1.27h0Z"/><path class="cls-3" d="M34.07,58.54h7.27c-.15.2-.23.33-.33.44-.03.04-.1.05-.16.05-1.88.26-1.72.75-1.72,2.17v7.86c0,1.06.13,1.22,1.16,1.52.21.06.44.1.64.2.15.08.26.25.39.37-.03.05-.06.09-.09.14h-7.26c.2-.23.3-.44.46-.49,1.64-.45,1.79-.35,1.79-2.42v-7.7c0-1.14-.16-1.33-1.27-1.6-.22-.05-.45-.08-.65-.15-.13-.05-.22-.18-.33-.27.04-.05.08-.09.12-.14h0Z"/><path class="cls-3" d="M47.04,45.86c.39.04.97.06,1.54.16,1.39.26,2.26,1.06,2.43,2.46.11.9.08,1.86-.09,2.75-.25,1.32-1.16,2.12-2.5,2.26-.94.1-1.9.15-2.84.05-1.66-.17-2.66-1.17-2.86-2.84-.1-.8-.09-1.63.04-2.43.2-1.32,1.37-2.22,2.88-2.36.41-.04.82-.04,1.41-.07h0ZM44.03,49.65s-.03,0-.05,0c.06.48.09.96.18,1.43.25,1.27,1.12,1.96,2.55,2.06,1.35.09,2.5-.53,2.8-1.71.21-.84.28-1.77.2-2.64-.15-1.68-1.1-2.43-2.8-2.45-1.78-.02-2.79.93-2.86,2.69,0,.2,0,.41,0,.61h0Z"/><path class="cls-3" d="M35.98,49.79c0,.99-.03,1.82.03,2.65.01.18.35.36.57.5.18.11.39.15.59.22-.01.06-.03.11-.04.17h-3.56s-.04-.1-.07-.15c.18-.08.36-.19.55-.22.55-.07.75-.35.74-.9-.02-1.56,0-3.12,0-4.69,0-.76-.03-.79-.79-.93-.14-.03-.26-.15-.38-.22.14-.06.27-.17.41-.17,1.53.02,3.05,0,4.58.1,1.23.09,1.84.86,1.63,1.91-.17.82-.79,1.23-1.52,1.48-.26.09-.54.12-.94.21,1.35,1.23,2.65,2.41,4.05,3.7-.64,0-1.16.03-1.67-.01-.19-.02-.39-.18-.55-.33-.98-.91-1.95-1.84-2.92-2.75-.18-.17-.37-.31-.68-.57h0ZM35.97,46.41v2.57c0,.13.02.26.04.54.79-.14,1.56-.21,2.29-.42.54-.16.79-.83.7-1.5-.08-.58-.37-1-.96-1.07-.66-.08-1.32-.08-2.07-.12h0Z"/><path class="cls-3" d="M62.74,53.44c-.95,0-1.89,0-2.84,0-.09,0-.17-.1-.26-.16.07-.09.14-.26.21-.26.98-.08,1.35-.82,1.75-1.54.92-1.7,1.84-3.4,2.77-5.08.11-.2.34-.33.52-.49.16.18.37.33.48.53.88,1.74,1.74,3.49,2.59,5.24.33.68.69,1.29,1.56,1.3.08,0,.16.15.24.23-.09.08-.19.23-.28.24-.99,0-1.97,0-2.96-.01-.1,0-.2-.1-.3-.15.07-.09.12-.23.21-.27.77-.33.77-.32.4-1.1-.46-.96-1.21-1.44-2.27-1.44-1.17,0-2,.52-2.49,1.57-.28.61-.23.73.4.96.14.05.25.19.37.29l-.09.16h0ZM64.53,47.43c-.48.94-.89,1.73-1.31,2.56h2.62c-.44-.86-.84-1.64-1.31-2.56Z"/><path class="cls-3" d="M56.55,49.85c.73-1.11,1.4-2.13,2.12-3.24-.37-.07-.61-.09-.83-.16-.09-.03-.17-.14-.25-.21.08-.06.16-.17.23-.17.76-.01,1.53-.01,2.29,0,.08,0,.16.1.24.16-.09.07-.18.2-.26.2-.55,0-.88.33-1.16.75-.59.9-1.22,1.78-1.78,2.7-.5.82-.31,1.73-.14,2.59.04.2.53.3.81.46.14.08.27.18.4.27-.15.06-.3.17-.46.17-1.11.01-2.23,0-3.34,0-.03-.06-.06-.11-.09-.17.14-.09.26-.23.41-.27.83-.2.89-.27.93-1.11.05-.86-.08-1.64-.64-2.34-.49-.62-.9-1.32-1.35-1.98-.35-.52-.76-.97-1.43-1.06-.09-.01-.17-.14-.25-.22.1-.05.2-.15.3-.16.88-.01,1.75-.01,2.63,0,.1,0,.2.1.3.16-.08.08-.15.19-.24.22-.33.09-.46.27-.27.57.58.92,1.18,1.83,1.83,2.83h0Z"/><path class="cls-3" d="M73.29,52.82c1.03,0,2,.03,2.95-.03.18,0,.41-.34.48-.57.1-.31.09-.65.12-1.01.21-.02.39-.04.61-.06v2.25h-6.49c-.04-.05-.07-.1-.11-.16.13-.11.26-.31.4-.33.63-.07.78-.41.76-.99-.03-1.43,0-2.86,0-4.29,0-.93,0-.93-.9-1.17-.13-.04-.25-.15-.37-.23.02-.05.04-.09.06-.14h3.64s.05.09.08.14c-.13.09-.25.21-.39.25-.8.23-.84.28-.84,1.11v5.24Z"/></g></svg>