<?xml version="1.0" encoding="UTF-8"?><svg id="Lag_1" xmlns="http://www.w3.org/2000/svg" width="205.36" height="64" xmlns:xlink="http://www.w3.org/1999/xlink" viewBox="0 0 205.36 64"><defs><style>.cls-1{clip-path:url(#clippath);}.cls-2{fill:none;}.cls-2,.cls-3,.cls-4{stroke-width:0px;}.cls-3{fill:#f2f2f2;}.cls-4{fill:#fff;}</style><clipPath id="clippath"><rect class="cls-2" width="205.36" height="64"/></clipPath></defs><g class="cls-1"><path class="cls-3" d="M49.73,11.53c-1.43.38-2.95.56-4.25,1.2-.79.39-.93.39-1.5-.23-.42-.47-.73.09-.68.64.02.2-.01.41-.02.61-.15-.13-.28-.27-.45-.38-.94-.59-1.87-1.2-2.83-1.75-.38-.22-.87-.24-1.28-.42-2.3-1.04-5.11-.15-6.37,2.07-.37.65-.63,1.38-1.05,2-.37.54-.85,1.05-1.37,1.46-.69.53-1.24.96-1.06,2.02.19,1.09.5,1.89,1.71,2.03l-.06-.06c-.05.14-.13.27-.16.42-.1.45-1.44,2.62-1.72,3.01-.42.59-.57.85-.88-.11-.37-1.18-1.67-1.92-1.66-3.36,0-.22-.69-.64-1-.6-.35.05-.93.6-.89.82.19.95-.34,1.28-1,1.7-.39.25-.69.76-.84,1.23-.18.56.08,1.04.72,1.19,1.11.26,2.23.51,3.34.76l-.05-.06c0,.07,0,.19-.04.22-.48.32-.97.62-1.46.93.32.49.69.95.95,1.47.45.89.1,1.46-.91,1.39-1.16-.07-2.28-.34-2.56,1.36-.06.37-.81.62-1.23.93-2.27,1.69-3.17,4.2-2.37,6.85.31,1.02.54,1.89.19,3.03-.36,1.16-.19,2.54-.01,3.79.24,1.72,3.64,4.71,5.39,4.8,1.13.06,2.28-.02,3.39-.21.78-.13,1.41-.2,2.16.22.84.48,1.78.65,1.52,2.02-.08.43.53,1.01.85,1.51.68,1.03,1.41,2.05.37,3.28-.05.05-.08.13-.11.2-.67,1.89,2.03,5.41,4.02,5.26,2.51-.2,4.41-1.51,6.05-3.3.25-.27.36-.74.65-.92,1.59-.94,2.45-2.18,2.05-4.12-.05-.27.26-.69.51-.94.9-.93,1.87-1.78,2.74-2.73.86-.95,1.69-1.94,2.41-2.99.22-.33.15-1.01-.05-1.42-.09-.19-.76-.15-1.17-.14-.3,0-.58.19-.88.21-.23.01-.47-.11-.71-.18.16-.11.32-.26.49-.3,1.57-.38,3.01-1.03,4.25-2.1.23-.2.51-.35.69-.59.9-1.17,1.72-1.56.28-3.32l-.06.06c.45-.01.91-.05,1.36-.04,1.58.01,2.43.78,2.67,2.39.13.9.21,1.81.44,2.68.08.3.48.63.79.7.17.04.52-.42.67-.71.44-.88.81-1.79,1.25-2.67.06-.13.32-.17.48-.25.03.14.12.3.09.43-.11.44-.22.89-.4,1.3-4.79,11.32-13.09,18.21-25.39,19.88-8.09,1.1-15.51-.81-22.27-5.35-.58-.39-1.45-.75-.19-1.44.15-.08,0-.7,0-1.06.01-.41-.11-1,.11-1.19.95-.86.35-1.58-.21-2.14-.63-.64-1.42-1.15-2.22-1.56-1.48-.76-2.65-1.68-3.68-3.12-1.24-1.73-3.11-3.04-4.84-4.36-.63-.49-1.16-.91-1.37-1.68-.32-1.25-.68-2.49-.95-3.74-.11-.51-.22-1.15-.01-1.57.86-1.76.59-3.92,1.94-5.5.38-.45.68-1.03,1.15-1.32.73-.45,1.03-.76.38-1.55-.48-.59-.59-1.29.53-1.4l-.03-.03c.12.19.19.47.36.56.48.27,1.16.8,1.49.65.74-.33.21-1,.02-1.55-.11-.31-.1-.65-.12-.98-.05-.65-.05-1.3-.14-1.94-.09-.65-.22-1.3-.43-1.92-.12-.37-.35-.79-.65-.98-.73-.45-.33-2.22-1.91-1.64l.06.05c.44-.58.64-1.77,1.7-.5.63.76,1.26.14,1.7-.35.49-.54,1-1.16,1.23-1.83.19-.57-.02-1.26-.06-1.9l-.05.05c.14-.26.47-.61.4-.76-.92-1.69.08-2.69,1.27-3.58.58-.43,1.26-.74,1.89-1.1-.07.7-.03,1.44-.23,2.1-.37,1.2-1,2.33-1.29,3.55-.28,1.14-.41,2.38-.3,3.54.05.48.82,1.11,1.37,1.25.37.1,1.17-.4,1.38-.83,1.3-2.61,3.62-3.95,6.11-5.1,1.29-.59,2.34-1.33,2.24-2.99-.01-.23.22-.55.43-.7.98-.66,1.26-1.65,1.37-2.73l-.05.05c.89-1.09,1.78-2.17,2.64-3.28.16-.21.37-.67.3-.73-.24-.21-.61-.44-.88-.39-.61.11-1.23.47-1.21-.61-.89-.02-1.78-.05-2.68-.07l.04.04c.23-.16.44-.42.69-.48,5.87-1.4,11.77-2.23,17.76-.87,3.64.82,7.14,2.01,10.17,4.3.9.68,1.87,1.29,2.8,1.92.6.4.77.76.21,1.42-.29.34-.16,1.02-.28,1.53-.11.47-.39.61-.79.22-.21-.21-.4-.47-.65-.61-.6-.33-1.05-.01-.92.69.09.49.4.94.61,1.41l.03-.05h.01ZM33.33,5.66c.52-.05,1.37.27.92-.85-.06-.14-.13-.42-.11-.43.4-.16,1.03-.23.63-.84-.19-.28-.78-.49-1.14-.43-.88.12-1.74.4-2.59.65-.17.05-.45.35-.42.39.38.62.73,1.3,1.24,1.8.56.55,1.1.13,1.54-.33l-.05.04h0ZM44.36,8.91c-.16,1.03.49,1.7,1.44,2.15.23.11.55.02.83.02-.03-.27.05-.63-.1-.78-.97-.97-.55-1.72.29-2.45.11-.1.27-.22.28-.34.05-.33.11-.71,0-.99-.07-.16-.51-.28-.75-.24-1.45.21-2.02.95-1.98,2.63h0ZM21.19,14.32c-.78.16-1.3.39-1.79.35-.6-.05-1.05-.05-1.19.62-.14.68.16,1.15.76,1.47,1.01.55,1.91.18,2.69-.44.26-.21.47-.8.37-1.09-.15-.4-.62-.68-.84-.91h0ZM45.75,59.2c1.19,0,3.13-2.16,2.89-3.29-.05-.24-.65-.62-.7-.57-1.03.84-2.44,1.25-2.95,2.69-.26.72,0,1.18.77,1.18ZM1.79,41.17c.05-.12.17-.27.14-.37-.04-.11-.22-.16-.34-.23-.05.13-.15.28-.13.4.02.09.21.14.32.21Z"/><path class="cls-3" d="M133.19,25.82c0,2.51-.04,5.02.02,7.52.03.95-.16,1.44-1.21,1.4-1.14-.05-2.28-.03-3.42,0-.97.02-1.32-.4-1.31-1.37.04-3.19.02-6.39.02-9.58,0-1.6.01-3.19,0-4.79-.02-1.85-1.17-3.16-3-3.37-3.06-.36-6.18,1.24-6.2,5-.02,4.25,0,8.51.13,12.76.03,1-.1,1.36-1.15,1.35-5.66-.1-4.57.82-4.63-4.41-.02-1.57.32-3.13.47-4.7.32-3.32.43-6.65.24-9.97-.01-.23,0-.46,0-.68.09-2.66.47-2.99,3.09-2.87.85.04,1.34.16,1.52,1.2.31,1.77,1.11,1.97,2.39.58,2.32-2.51,5.16-2.69,8.17-1.97,2.81.67,4.7,3.17,4.84,6.17.06,1.29.03,2.59.03,3.88v3.88h0Z"/><path class="cls-3" d="M97.36,34.5c-3.76.01-3.06.23-4.23-3.04-2.03-5.64-4.04-11.29-6.06-16.94-.16-.43-.27-.87-.47-1.28-.37-.76-.13-1.16.69-1.19,1.06-.04,2.13.03,3.19-.05,1.18-.09,1.77.33,2.08,1.53.84,3.24,1.8,6.44,2.72,9.65.31,1.09.58,2.21.95,3.28.26.73.21,1.88,1.34,1.83,1.07-.05,1.04-1.19,1.3-1.92.43-1.21.74-2.48,1.1-3.71.88-2.99,1.74-5.98,2.64-8.96.5-1.63.54-1.66,2.21-1.66,3.93,0,3.27-.29,2.14,3.04-2.1,6.18-4.38,12.31-6.52,18.48-.25.73-.57.97-1.27.94-.61-.03-1.21,0-1.82,0h.01Z"/><path class="cls-3" d="M187.13,10.65c.38,0,.76,0,1.14,0,1.6.03,1.62.02,2.1,1.67,1.32,4.52,2.61,9.04,3.91,13.56.15.51.27,1.03.48,1.52.1.23.37.38.57.57.15-.15.36-.28.43-.46.31-.77.62-1.55.85-2.34,1.2-4.15,2.36-8.32,3.55-12.47.57-1.98.59-1.97,2.66-2.04,1.95-.06,2.61.81,1.99,2.61-2.29,6.76-4.6,13.51-6.83,20.29-.3.91-.7,1.17-1.58,1.21-3.33.17-3.34.2-4.45-3.04-2.2-6.46-4.4-12.93-6.58-19.39-.56-1.66-.54-1.67,1.3-1.68h.46,0Z"/><path class="cls-3" d="M139.18,23.25c0-3.19-.02-6.39,0-9.58.01-1.53.34-1.83,1.85-1.96.45-.04.91-.01,1.37-.02,1.35,0,2.09.65,2.24,1.96.12,1.07.35,1.22,1.26.66.57-.35,1.06-.84,1.54-1.31,1.07-1.06,2.35-1.63,3.84-1.8.76-.09,1.15.19,1.11.99-.02.53,0,1.06,0,1.6.02.98.43,2.27-.04,2.87-.42.53-1.81.27-2.76.42-2.84.45-4.4,2.11-4.51,5.12-.12,3.41-.06,6.84-.07,10.26q0,2.27-2.34,2.27c-2.32,0-3.49-1.17-3.49-3.51v-7.98h0Z"/><path class="cls-3" d="M173.79,10.64c2.58,0,5.16-.01,7.74,0,1.61,0,1.61.03,1.67,1.64.01.38-.03.76.02,1.14.1.85-.37,1.05-1.08,1.05-1.52,0-3.04-.01-4.55.02-1.7.04-1.8.11-1.81,1.84-.02,5.7-.05,11.41.06,17.11.02,1.08-.21,1.31-1.17,1.3-4.46-.03-3.59.32-3.63-3.36-.05-5.02,0-10.04-.03-15.05,0-1.74-.07-1.79-1.78-1.84-1.37-.03-2.74.02-4.1-.03-1.36-.05-1.4-.13-1.46-1.44-.01-.3.03-.61,0-.91-.13-1.14.49-1.46,1.48-1.46,1.97,0,3.94,0,5.92-.01h2.74,0Z"/><path class="cls-3" d="M31.46,30.37c.72.54,1.46,1.06,2.16,1.62.59.47.84.92-.19,1.2-.16.04-.21.45-.31.69.39.15.79.31,1.19.42.08.02.23-.17.32-.29.4-.51.79-1.02,1.18-1.53.41.43.84.84,1.21,1.29.4.48.82.57,1.4.3.75-.35.43-.81.24-1.31-.05-.11.11-.31.16-.46.12.08.32.14.34.23.32,2.04,2.1,2.06,3.52,2.64.4.16.88-.76.98.03.08.59,0,1.32-.95,1.55-1.4.33-2.69.1-3.99-.36-.91-.32-1.76-.53-2.33.6-.08.16-.65.21-.91.11-.84-.32-1.63-.73-2.44-1.11-.14-.06-.37-.16-.37-.23.03-2.42-2.65-2.23-3.6-3.75-.54-.86-.71-.85.18-1.21.42-.17.87-.28,1.3-.42l-.03-.06c.02.59-.03,1.19.09,1.76.05.24.47.4.72.6.13-.28.37-.56.37-.85,0-.5-.12-1-.2-1.51l-.04.07Z"/><path class="cls-3" d="M163.19,50.43c0-.15-.01-.31,0-.46.13-1.17.26-2.34.4-3.51,1.63,0,3.26-.12,4.87.05.58.06,1.1.38,1.69.06.2-.11.43-.15.65-.2,2.54-.59,3.41.05,3.5,2.61.05,1.59.09,3.19.1,4.79,0,.22-.21.45-.33.67-.26-.19-.7-.35-.75-.59-.12-.59-.08-1.21-.08-1.82-.01-.99.03-1.98-.01-2.97-.05-1.46-.37-1.92-1.32-2.01-1.11-.11-2.13.53-2.45,1.62-.15.5-.17,1.05-.17,1.57,0,1.14.06,2.28.03,3.42,0,.27-.28.53-.43.79-.21-.26-.59-.5-.62-.78-.08-.91-.03-1.82-.04-2.74-.02-.83,0-1.68-.12-2.5-.22-1.35-1.05-1.75-2.3-1.19-1,.45-1.54,1.24-1.57,2.32-.04,1.29,0,2.59-.04,3.88-.01.32-.23.62-.36.93-.21-.33-.58-.65-.61-.99-.08-.98-.03-1.98-.03-2.97h0Z"/><path class="cls-3" d="M107.1,50.28c-.11.57-.18,1.33-.4,2.05-.6,1.98-1.79,2.67-3.82,2.24-.44-.09-.84-.39-1.28-.43-.48-.04-.99.11-1.48.17-.08-.66-.22-1.33-.23-2-.03-2.43,0-4.87,0-7.3,0-.3-.06-.63.03-.91.09-.3.32-.55.49-.83.13.24.33.47.37.72.07.45.04.91.04,1.36,0,.75.33,1.14,1.12,1,.37-.06.75-.11,1.13-.16,2.37-.31,3.43.43,3.86,2.73.07.37.1.75.17,1.32h0ZM105.96,50.36c-.04-.34-.04-.96-.2-1.54-.52-1.86-2.11-2.4-3.72-1.3-1.22.84-1.66,2.68-1.04,4.33.48,1.29,1.79,2.14,3.01,1.95,1.17-.19,1.7-.89,1.88-2.49.02-.23.04-.45.07-.95h0Z"/><path class="cls-3" d="M144.28,50.58c-.61,0-1.22-.03-1.82,0-1.44.1-1.77.69-1.07,1.89.83,1.44,2.54,1.85,3.92.91.31-.21.52-.56.82-.78.13-.1.38-.04.57,0,.04,0,.08.34.01.4-.58.54-1.11,1.27-1.82,1.55-1.55.62-3.35,0-4.29-1.25-1.05-1.38-1.16-3.81-.26-5.19.96-1.46,2.74-2.23,4.34-1.88,1.56.34,2.9,2.35,2.52,3.83-.06.21-.41.45-.64.47-.75.06-1.52.02-2.28.02v.03h0ZM143.7,49.88h0c.22,0,.47.06.67,0,.53-.16,1.06-.36,1.58-.55-.29-.66-.45-1.43-.9-1.95-.55-.63-1.97-.6-2.73.01-.49.39-1.07,1.03-1.08,1.57-.02.84.92.79,1.56.9.29.05.6,0,.9,0Z"/><path class="cls-3" d="M183.84,50.38c-.02.32-.02.78-.1,1.23-.37,2.08-1.39,3.06-3.27,3.17-2.03.12-3.47-.92-4.02-2.94-.48-1.74-.25-3.29,1.17-4.55,1.37-1.22,2.98-1.62,4.38-.9,1.57.81,1.87,2.27,1.85,4h0ZM182.67,50.3c-.03-.32-.05-.85-.12-1.37-.14-.97-.62-1.7-1.62-1.95-1.04-.26-1.95.05-2.66.82-1.13,1.21-1.17,3.76-.09,5.05.73.87,1.66,1.28,2.81.97,1.12-.29,1.54-1.12,1.6-2.19.02-.38.04-.75.08-1.33h0Z"/><path class="cls-3" d="M134.42,54.79c-1.41.04-2.78-.79-3.41-2.26-.75-1.75-.6-3.4.65-4.89,1.07-1.28,2.4-1.8,4.05-1.37,1.41.38,2.59,2.24,2.33,3.74-.04.2-.38.48-.59.49-1.05.07-2.12.05-3.18.08-.53,0-1.07-.02-1.58.06-.77.12-.96.62-.72,1.34.59,1.7,2.55,2.45,4.07,1.51.37-.23.64-.64.98-.93.1-.09.28-.08.42-.12.05.2.19.44.13.59-.54,1.3-1.67,1.66-3.16,1.76h0ZM134.55,49.86v.03c.23,0,.47.05.68,0,.53-.17,1.05-.39,1.57-.59-.31-.65-.47-1.44-.96-1.91-.7-.7-2-.56-2.9.21-.43.36-.65.95-.97,1.43.49.28.94.63,1.46.83.33.12.75.02,1.12.02h0Z"/><path class="cls-3" d="M113.13,50.6c-.76,0-1.52-.06-2.27.02-.88.1-1.13.61-.82,1.46.6,1.68,2.62,2.34,4.11,1.32.37-.25.65-.63,1-.92.08-.07.31-.06.4.01.09.07.15.28.1.39-.37.89-.97,1.49-1.95,1.72-1.81.42-3.54-.16-4.41-1.56-.99-1.58-.86-4.01.29-5.33.89-1.02,1.95-1.68,3.36-1.61,1.89.1,3.58,2.22,3.13,3.98-.05.19-.42.41-.65.43-.75.06-1.51.02-2.27.02v.06h0ZM112.56,49.86v.02c.38,0,.76.03,1.13,0,1.19-.11,1.47-.61.95-1.63-.74-1.45-2.51-1.75-3.84-.56-.39.35-.52,1-.77,1.52.46.22.91.5,1.39.64.35.1.75.02,1.13.02Z"/><path class="cls-3" d="M191.02,50.55c-.14-1.74.78-2.9,2.1-3.79,1.24-.83,2.59-.91,3.86-.16,1.24.74,1.41,2.09,1.49,3.39,0,.17-.47.52-.74.54-1.21.07-2.43,0-3.63.08-.56.04-1.36.17-1.59.55-.44.73.11,1.45.66,1.99,1.16,1.13,2.3,1.02,3.98-.32.19-.15.48-.16.72-.24-.03.28.04.61-.1.82-.79,1.29-2.09,1.43-3.4,1.31-1.59-.14-2.6-1.14-3.12-2.61-.17-.49-.17-1.04-.25-1.57h0ZM194.62,49.9c.83,0,1.2.03,1.57,0,1.07-.09,1.29-.47.88-1.47-.69-1.69-2.7-1.98-4.04-.54-.28.3-.56.82-.49,1.15.07.31.58.63.96.75.49.16,1.04.12,1.11.12h0Z"/><path class="cls-3" d="M125.74,46.02c1.61.04,2.67.69,3.01,1.7.04.11,0,.3-.08.37-.1.08-.32.15-.41.09-.3-.21-.56-.47-.85-.71-.94-.78-1.95-.74-2.97-.22-.87.44-.98,1.3-.13,1.75.99.52,2.11.8,3.17,1.17,1.38.48,1.77,1.15,1.59,2.58-.11.83-.53,1.41-1.27,1.74-1.7.77-4.09.28-4.95-1.04-.18-.27-.17-.67-.25-1.01.32.09.75.08.94.29.89.98,1.91,1.47,3.23,1.14.69-.18,1.31-.44,1.31-1.32,0-.8-.45-1.26-1.17-1.47-.8-.23-1.62-.41-2.41-.67-.88-.29-1.73-.65-1.85-1.76-.1-.88.46-1.69,1.64-2.21.54-.24,1.15-.33,1.45-.4h0Z"/><path class="cls-3" d="M149.34,50.27c.15-1.26.31-2.52.46-3.78,1.19-.1,2.38-.22,3.57-.29,1.84-.11,2.52.47,2.63,2.3.1,1.82.1,3.64.11,5.47,0,.16-.26.46-.33.44-.25-.08-.64-.24-.66-.4-.09-.9-.08-1.82-.11-2.73-.04-.91,0-1.84-.15-2.72-.26-1.46-1.09-1.85-2.49-1.37-1.23.42-1.84,1.28-1.85,2.57,0,1.37.01,2.73,0,4.1,0,.18-.19.36-.3.54-.21-.16-.61-.3-.62-.47-.05-1.21-.03-2.43-.03-3.64-.07,0-.14,0-.21-.01h0Z"/><path class="cls-3" d="M186.09,50.35c0-1.06-.04-2.13.03-3.19.02-.26.52-.73.58-.7.93.51,1.78-.08,2.65-.12.17,0,.41.19.51.36.04.08-.13.43-.25.45-2.26.42-2.57,2.05-2.48,3.95.04.76.04,1.52.04,2.28,0,.39.4.98-.36,1.05-.83.08-.72-.61-.74-1.11-.02-.99,0-1.98,0-2.96h.03Z"/><path class="cls-3" d="M158.28,34.91c-.97-.02-1.98-.88-2.06-1.76-.05-.59,1.49-1.79,2.32-1.79.88,0,1.55.86,1.48,1.9-.06,1.05-.72,1.68-1.74,1.65h0Z"/><path class="cls-3" d="M33.46,22.82c-.53-.03-.9-.03-1.27-.09-.13-.02-.24-.16-.36-.24.15-.11.27-.27.44-.33.13-.05.3,0,.45-.02,2.17-.22,2.95-1.53,2.12-3.57-.09-.21-.25-.38-.32-.59-.03-.1.05-.3.15-.34.11-.06.34-.06.42,0,.49.45.99.9,1.41,1.42.14.18.13.57.05.82-.12.35-.43.64-.54.98-.16.48-.07,1.3-.36,1.44-.7.35-1.55.4-2.17.53Z"/><path class="cls-3" d="M45.82,30.7c-.11.14-.18.32-.28.34-.21.05-.48.09-.66,0-1.09-.57-2.14-.59-3.25-.01-.23.12-.67-.17-1.01-.27.11-.24.21-.48.31-.72.41-1.03.96-1.13,2.04-.72.8.3,1.78.19,2.47.89.15.15.26.34.39.5h0Z"/><path class="cls-3" d="M49.67,28.49c.16.56.31,1.13.46,1.69.11.41.22.83.33,1.24-.33-.32-.69-.62-1-.97-.2-.22-.34-.5-.46-.77-.31-.72.21-.92.73-1.12l-.06-.06Z"/><path class="cls-4" d="M20.06,2c-1.01.57-2.02,1.15-3.05,1.68-.16.08-.43-.03-.65-.05.14-.13.25-.32.41-.38,1.1-.42,2.21-.81,3.32-1.2l-.04-.04Z"/><path class="cls-4" d="M2.27,19.85c-.16.8-.3,1.61-.52,2.4-.1.35-.37.65-.56.98-.03-.35-.19-.76-.07-1.04.34-.79.79-1.53,1.2-2.29l-.05-.05h0Z"/><path class="cls-3" d="M45.13,41.33c.46,1.29,1.91,2.11,1.74,3.7l.06-.05c-1.09-.99-1.77-2.18-1.74-3.7l-.06.06h0Z"/><path class="cls-3" d="M97.33,54.17c-.49.14-.82.35-.97.26-.24-.15-.36-.49-.52-.75.23-.13.52-.41.67-.35.27.12.45.43.82.84Z"/><path class="cls-3" d="M91.71,53.04c.36.39.63.6.76.88.04.09-.37.54-.48.51-.29-.09-.59-.31-.76-.56-.06-.09.23-.43.47-.83h0Z"/><path class="cls-3" d="M87.29,53.02c.29.44.53.69.61.98.03.1-.46.49-.57.43-.27-.13-.53-.4-.64-.67-.05-.11.3-.38.6-.75Z"/><path class="cls-4" d="M4.13,16.65c0-.07-.05-.16-.02-.22.34-.63.7-1.24,1.05-1.87.05.06.14.12.13.17-.07.83-.32,1.57-1.21,1.87l.05.05h0Z"/><path class="cls-3" d="M50.58,38.62c.4.16.83.28,1.19.52.16.11.18.43.26.66-.26-.03-.63.03-.76-.12-.27-.32-.42-.74-.63-1.12l-.06.06h0Z"/><path class="cls-4" d="M33.28,29.49c.61.43,1.22.87,1.83,1.3l.05-.05c-1.01.13-1.36-.69-1.84-1.31l-.03.05h0Z"/><path class="cls-3" d="M51.51,33.09c-.32.16-.56.36-.64.31-.28-.18-.51-.44-.76-.68.18-.13.43-.4.53-.36.28.14.51.4.87.72Z"/><path class="cls-3" d="M36.11,15.03c.08.21.2.38.16.45-.11.18-.3.32-.45.48-.04-.14-.15-.3-.1-.41.07-.18.24-.32.4-.53h0Z"/><path class="cls-3" d="M45.19,41.28c-.32-.43-.64-.87-.96-1.31l-.06.06c.32.43.64.87.96,1.31l.06-.05h0Z"/><path class="cls-4" d="M25.08,23.23c-.05.12-.11.25-.17.37-.09-.13-.23-.26-.25-.4-.01-.1.14-.22.22-.34.06.12.13.25.2.37h0Z"/><path class="cls-4" d="M31.47,20.72h-.94l.06.06c.16-.18.31-.37.47-.54.12.18.23.37.35.55l.06-.06Z"/><path class="cls-4" d="M43.91,28.26s-.04.09-.06.14c-.04-.06-.08-.12-.12-.19.06.02.12.03.18.05Z"/><path class="cls-4" d="M2.32,19.89c.15-.32.29-.65.44-.98l-.06-.05c-.15.33-.29.66-.43.98l.05.05Z"/><path class="cls-4" d="M31.4,20.79c.14.11.27.23.41.34l-.34-.41-.06.06h0Z"/><path class="cls-4" d="M30.55,30.36c.3,0,.61,0,.91.01l.04-.07h-.99l.03.06h0Z"/><path class="cls-4" d="M44.23,39.96c-.08-.11-.16-.22-.23-.34-.01-.03.04-.1.06-.15.03.18.07.37.1.55l.06-.06Z"/><path class="cls-4" d="M26.44,25.78c.18-.09.36-.18.53-.27-.19.07-.39.14-.58.21l.05.06Z"/><path class="cls-4" d="M42.06,15.34v-.64c-.01.19-.03.39-.05.58l.05.05Z"/><path class="cls-4" d="M38.51,18.73c-.11.02-.17.04-.22.04-.02,0-.04-.06-.05-.1.07.01.15.03.28.05h0Z"/><path class="cls-4" d="M35.52,31.31c.05,0,.1.02.16.03-.03-.03-.06-.05-.1-.09l-.06.05h0Z"/><path class="cls-4" d="M46.87,45.03h.19s-.09-.04-.13-.06l-.06.06h0Z"/><path class="cls-4" d="M49.73,28.55c.05-.07.11-.14.16-.21-.02.03-.03.08-.06.09-.05.03-.11.04-.16.05l.06.06Z"/><path class="cls-4" d="M4.09,16.61c-.03.06-.05.12-.08.18.04-.05.08-.09.12-.13l-.05-.05Z"/><path class="cls-4" d="M41.48,15.29c.19.02.39.03.58.05l-.05-.05-.48-.05-.05.05Z"/><path class="cls-4" d="M41.53,15.24c-.15-.15-.31-.29-.46-.43l-.05.05c.15.15.31.29.46.44l.05-.05h0Z"/><path class="cls-4" d="M35.1,30.8c.14.17.28.34.42.52l.06-.06c-.14-.17-.29-.33-.43-.5l-.05.05h0Z"/><path class="cls-4" d="M33.31,29.45l-.09-.09.06.13.03-.05Z"/><path class="cls-4" d="M41.07,14.81l-.09-.11.04.16.05-.05Z"/><path class="cls-4" d="M4.11,26.69c.05-.11.1-.21.15-.31-.06.09-.12.18-.18.28l.03.03Z"/><path class="cls-4" d="M7.33,14.33l-.13-.08.08.13.05-.05Z"/><path class="cls-4" d="M49.7,11.58l.09.1-.06-.14-.03.05Z"/><path class="cls-4" d="M21.93,7.01c-.05-.01-.11-.02-.16-.04.04.03.08.06.12.09l.05-.05h0Z"/><path class="cls-4" d="M53.84,39.93c-.06-.06-.12-.13-.18-.2.04.03.09.05.1.08.02.06.01.12.02.18l.06-.06Z"/><path class="cls-3" d="M50.65,38.56l-.19-.23s.1.05.11.09c.02.06.01.13.01.2l.06-.06h0Z"/><path class="cls-4" d="M1.79,41.17c-.11-.07-.3-.11-.32-.21-.03-.12.08-.27.13-.4.12.08.3.13.34.23.04.09-.09.24-.14.37h0Z"/><path class="cls-4" d="M33.39,5.62l-.14-.03.09.07.05-.04Z"/></g></svg>